<svg width="80" height="80" viewBox="0 0 80 80" fill="none" xmlns="http://www.w3.org/2000/svg">
<path d="M17.9091 18.4615C17.9091 16.9746 16.8102 15.7692 15.4545 15.7692C14.0989 15.7692 13 16.9746 13 18.4615H17.9091ZM62.0909 61.5385C62.0909 63.0254 63.1898 64.2308 64.5455 64.2308C65.9011 64.2308 67 63.0254 67 61.5385H62.0909ZM17.9091 58.8462V18.4615H13V58.8462H17.9091ZM62.0909 21.1538V61.5385H67V21.1538H62.0909ZM42.4545 58.8462V21.1538H37.5455V58.8462H42.4545ZM52.2727 5C44.1391 5 37.5455 12.2323 37.5455 21.1538H42.4545C42.4545 15.2061 46.8503 10.3846 52.2727 10.3846V5ZM27.7273 75C35.8609 75 42.4545 67.7677 42.4545 58.8462H37.5455C37.5455 64.7939 33.1497 69.6154 27.7273 69.6154V75ZM67 21.1538C67 12.2323 60.4064 5 52.2727 5V10.3846C57.6952 10.3846 62.0909 15.2061 62.0909 21.1538H67ZM13 58.8462C13 67.7677 19.5936 75 27.7273 75V69.6154C22.3048 69.6154 17.9091 64.7939 17.9091 58.8462H13Z" fill="#29BD55"/>
<path d="M24.8725 19H6.12746C4.23589 19 3.28857 16.3606 4.62614 14.8168L12.937 5.22525C14.3526 3.59158 16.6474 3.59158 18.063 5.22525L26.3738 14.8168C27.7114 16.3606 26.7641 19 24.8725 19Z" fill="#02856C" stroke="#02856C" stroke-width="4" stroke-linecap="round" stroke-linejoin="round"/>
<path d="M55.1275 61H73.8725C75.7641 61 76.7114 63.6394 75.3738 65.1832L67.063 74.7748C65.6474 76.4084 63.3526 76.4084 61.937 74.7748L53.6262 65.1832C52.2886 63.6394 53.2359 61 55.1275 61Z" fill="#02856C" stroke="#02856C" stroke-width="4" stroke-linecap="round" stroke-linejoin="round"/>
</svg>
