<svg width="60" height="60" viewBox="0 0 60 60" fill="none" xmlns="http://www.w3.org/2000/svg">
<path d="M13.4318 21.2308C13.4318 20.6254 12.6076 20.1346 11.5909 20.1346C10.5742 20.1346 9.75 20.6254 9.75 21.2308H13.4318ZM46.5682 38.7692C46.5682 39.3746 47.3924 39.8654 48.4091 39.8654C49.4258 39.8654 50.25 39.3746 50.25 38.7692H46.5682ZM13.4318 37.6731V21.2308H9.75V37.6731H13.4318ZM46.5682 22.3269V38.7692H50.25V22.3269H46.5682ZM31.8409 37.6731V22.3269H28.1591V37.6731H31.8409ZM39.2045 15.75C33.1043 15.75 28.1591 18.6946 28.1591 22.3269H31.8409C31.8409 19.9054 35.1377 17.9423 39.2045 17.9423V15.75ZM20.7955 44.25C26.8957 44.25 31.8409 41.3054 31.8409 37.6731H28.1591C28.1591 40.0946 24.8623 42.0577 20.7955 42.0577V44.25ZM50.25 22.3269C50.25 18.6946 45.3048 15.75 39.2045 15.75V17.9423C43.2714 17.9423 46.5682 19.9054 46.5682 22.3269H50.25ZM9.75 37.6731C9.75 41.3054 14.6952 44.25 20.7955 44.25V42.0577C16.7286 42.0577 13.4318 40.0946 13.4318 37.6731H9.75Z" fill="#29BD55"/>
<path d="M18.6544 21H4.59559C3.17692 21 2.46643 19.9442 3.46961 19.3267L9.70277 15.4901C10.7644 14.8366 12.4856 14.8366 13.5472 15.4901L19.7804 19.3267C20.7836 19.9442 20.0731 21 18.6544 21Z" fill="#02856C" stroke="#02856C" stroke-width="4" stroke-linecap="round" stroke-linejoin="round"/>
<path d="M41.3456 39H55.4044C56.8231 39 57.5336 40.0558 56.5304 40.6733L50.2972 44.5099C49.2356 45.1634 47.5144 45.1634 46.4528 44.5099L40.2196 40.6733C39.2164 40.0558 39.9269 39 41.3456 39Z" fill="#02856C" stroke="#02856C" stroke-width="4" stroke-linecap="round" stroke-linejoin="round"/>
</svg>
