<?xml version="1.0" encoding="utf-8"?>
<!-- Generator: Adobe Illustrator 26.5.0, SVG Export Plug-In . SVG Version: 6.00 Build 0)  -->
<svg version="1.1" id="master-artboard" xmlns="http://www.w3.org/2000/svg" xmlns:xlink="http://www.w3.org/1999/xlink" x="0px"
	 y="0px" viewBox="0 0 2000 1500" style="enable-background:new 0 0 2000 1500;" xml:space="preserve">
<style type="text/css">
	.st0{fill:none;}
	.st1{fill:#C7D9FA;}
	.st2{fill:#9EBDF7;}
	.st3{fill:#CFF0EF;}
	.st4{fill:#AFE6E4;}
	.st5{fill:url(#SVGID_1_);}
	.st6{fill:url(#SVGID_00000178911539852109403960000000518305959368793747_);}
	.st7{fill:#A0BDE5;}
	.st8{fill:#94B2D6;}
	.st9{fill:url(#SVGID_00000103977335727759336590000008791485022926139029_);}
	.st10{fill:#F8F9FB;}
	.st11{fill:url(#SVGID_00000013890726541909502840000014803004987412094381_);}
	.st12{fill:url(#SVGID_00000050662922273981709480000012514637603003299211_);}
	.st13{fill:url(#SVGID_00000103261056319142879480000004322756375064258985_);}
	.st14{enable-background:new    ;}
	.st15{fill:#03423C;}
</style>
<rect x="9" y="-182.2" class="st0" width="2000" height="2000"/>
<g transform="matrix(1, 0, 0, 1, 5.684341886080802e-14, -176.9385986328125)">
	<path class="st1" d="M156.3,729.1c-5.7,27.6-8.1,56.2-7.2,84.7c19.1-41.9,48.6-78.4,78.6-112.5c28-31.9,57.9-62.1,84.1-95.7
		c25.2-35.5,43.6-75.3,62.9-114.3c-26.8,6-52.9,15.8-77.8,30.9C228.4,563.5,174.4,641.9,156.3,729.1z"/>
	<path class="st1" d="M1107.2,348.2c18.5,7.6,37.3,13.5,56.9,17.2c6.3,0.7,12.5,0.8,18.8,0.8c6.5,0,12.9-0.3,19.4-0.9
		c0.5-0.1,1-0.3,1.5-0.3c-29.3-29.3-59.3-58.2-93.6-78.7c-30.4-18.3-61.9-29-96-32.5c-6.1-0.7-12-0.9-18.2-0.9
		c-19.5,0-39,2.9-58.1,7.8c31.8,13.6,62.4,29.7,92.6,46.8C1055.6,321.8,1080.9,336,1107.2,348.2z"/>
	<path class="st1" d="M1242,1357.4c-61.2-16.8-123.1-32.3-185.8-41.7c-30.2-3.8-60.6-6-91.1-6c-22.6,0-45.3,1.2-67.8,3.8
		c-33.9,5.4-67.2,14.3-100.2,24.1c-64.5,18.9-129.9,39-197.6,39.4c-0.6,0-1.3,0-1.9,0c-25.4,0-51.6-2.5-76.5-8.5
		c1,11.8,1.8,23.5,1.8,35.4c0.3,26.1,19.2,51.1,42.4,51.1c0.6,0,1,0,1.6,0c13-0.7,25-7.3,33.3-18c127.4,30.7,257.8,46.6,388,46.6
		c17.5,0,35-0.3,52.5-0.9c81.1-2.6,161.9-11.8,242.1-26.2c55-9.9,109.2-24,161.3-45.8c-4.4-0.8-8.9-1.7-13.3-2.6
		C1367.3,1394.5,1304.8,1374.6,1242,1357.4z"/>
	<path class="st1" d="M1686.1,510.2c3.7,10.2,7,20.5,9.9,30.7c17.8,62.4,22.9,129.2,21.9,194.1c-1,62.9-7.6,125.5-13.4,188
		c-6.7,71.7-13.3,143.2-20,214.8c-1.9,20.3-3.5,40.5-5.4,60.8c27.3-48.4,48.7-100.7,64.9-155.9c21-72.1,32.3-148,36.1-223.8
		c3.7-74.1-3-149.5-29.7-217.4C1735.8,564.7,1713.5,533.6,1686.1,510.2z"/>
	<path class="st1" d="M851.3,235.1c-27.2-4.5-54.7-7.7-82.2-7.7c-5.2,0-10.4,0.1-15.7,0.3c-65.5,2.9-128.7,19.3-187.5,49.6
		c-58.6,30.1-107.5,75.8-144.9,131c-17.8,26.2-32.3,54.6-46.3,83.1c18-4,36.4-6.5,55-7.7c42.8-2.8,85.6-0.1,128.3-5.7
		c16.2-3,32.3-7.4,47.8-13.5c4.4-1.7,8.9-3.6,13.3-5.6c1.4-0.7,2.8-1.3,4.2-1.9c7.7-4,15.3-8.1,22.8-12.7c31-18.4,60-40.9,88.6-63.6
		c55.8-44,111.6-87.7,176.6-111.4c8.6-3.2,17.5-6,26.3-8.2c-2.3-1.1-4.7-2-7-3C905.2,247.2,878.4,239.7,851.3,235.1z"/>
	<path class="st1" d="M1491.1,1388.4c-15.4,8.2-31,15.6-46.9,22.3c14,2.5,28.1,4.4,42.1,5.6c4.4,0.4,9,0.5,13.3,0.5
		c13.9,0,27.6-1.6,41.5-3.8c17.5-2.6,34.2-9.3,49.7-17.6c15.3-8.2,29.6-20.1,40.2-34.2c15.3-19.7,25.8-39.2,33.3-63.6
		c5.7-18.7,7.8-38.4,10.2-57.6c1.6-13.8,3.2-27.6,4.4-41.3c-9.2,16.3-19.1,32.2-29.7,47.4
		C1607.3,1307.1,1552.3,1355.9,1491.1,1388.4z"/>
	<path class="st1" d="M506.7,1302.5c-1.6-5.2-3.5-10.2-5.2-15.2c0.6,2.3,1.3,4,1.6,5.2c0.5,1.5,0.8,2.6,0.8,2.6s-0.3-0.7-0.8-2.6
		c-0.6-1.9-1.4-4.2-1.9-5.6c-1-2.5-2-4.9-3-7.4c-4.4-10.6-9.5-20.9-14.8-31.1s-11.6-19.5-17.3-29.3c2.5,4.4,3.5,6,3.4,6
		s-5.1-7.9-7-10.5c-3.5-4.8-7.2-9.5-11-14.2c-7-8.5-14.4-16.7-22.1-24.4c-2.2-2.1-4.3-4.1-6.5-6.1c-3.5-3-7.2-6-10.9-8.9
		c-34-26.4-72.2-44.4-108-67.2c-20.1-12.7-39-27.4-56.7-44.1c-16.2-15.1-29.7-33-42.3-52.1c-34.7-52.3-54.1-117.8-56.2-183.8
		c-1.3,2.6-2.4,5.3-3.5,8.1c-9.9,23.7-19,47.4-23.2,72.9c-4.7,28.5-6.5,55-2.8,83.6c3.5,27.4,11,53.1,24.4,77.4
		c11.6,20.8,27.3,39.9,45.7,54.7c20.4,16.7,41.5,30.5,64.3,43.5c15.7,8.9,31.4,17.8,46,28.4c4.7,4.1,9.1,8.5,13.2,13.1
		c4.4,7,8.2,14.3,11.5,22c5.3,13.8,10.6,27.6,16.6,40.9c7.3,16.6,17.8,31.8,29.9,45c23.7,26,56.2,41.7,89.8,42.5
		c13.3,6.9,27.1,12.7,41.7,17.2c6.1,1.9,12.3,3.6,18.5,5.2c0-0.3,0-0.4-0.1-0.5C518.2,1345.6,513.3,1323.7,506.7,1302.5z"/>
	<path class="st1" d="M1525.7,1245.7c-0.5,0.5-1,0.9-1.5,1.5C1525,1246.5,1525.6,1245.8,1525.7,1245.7z"/>
	<path class="st1" d="M1596.8,367.5c-27.6-25.6-59-45.6-94.6-56.6c-19.7-6-39.5-8.5-59.3-8.5c-17.3,0-34.8,1.9-52.2,4.8
		c-55.2,8.9-105.5,36.2-159,51.3c-9.2,2.6-18.5,4.8-28,6.6c12,12.1,24,24.1,36.1,35.9c4,4,8.2,7.8,12.4,11.8
		c-0.3-0.3-0.3-0.3-0.3-0.3s1.1,1.1,4.3,4c2.3,1.9,4.4,4,6.8,5.8c10.4,8.6,21,16.8,32.1,23.8c4.4,2.9,9,5.6,13.5,8.1
		c-0.3-0.1-0.3-0.3-0.3-0.3c0.3,0,1.8,0.8,5.8,3.2c2.3,1.1,4.6,2,6.8,2.9c11.4,4.5,23.2,7.7,35,9.9c12.1,1.5,24.3,2.3,36.4,2.3
		c1.3,0,2.7,0,3.9,0c32.1-0.4,64.1-4.6,96.1-7.6c15.3-1.5,30.5-2.3,45.7-2.3c19.2,0,38.5,1.5,57.7,4.8c33,5.7,63.9,20.9,90.2,43.2
		c-8.1-22.5-18-44.4-29.6-64.9C1640.6,416.8,1620.6,389.4,1596.8,367.5z"/>
	<path class="st1" d="M1315.8,458c-0.6-0.3-1-0.7-1.6-0.9c-0.4-0.3-0.6-0.3-1-0.5C1314.1,457.1,1315,457.5,1315.8,458z"/>
	<path class="st1" d="M1308.6,454.2c0.6,0.4,2.2,1.3,3.5,1.9c0.3,0.3,0.6,0.3,1,0.5c-0.4-0.3-0.8-0.4-1.1-0.7
		C1310.9,455.4,1309.8,454.7,1308.6,454.2z"/>
	<path class="st1" d="M1255.1,415.4c1,0.9,2,1.9,3.2,2.8c-0.8-0.7-1.4-1.3-2-1.9C1255.9,416,1255.5,415.8,1255.1,415.4L1255.1,415.4
		z"/>
	<path class="st1" d="M1252.1,412.6c0.6,0.5,1.9,1.9,3,2.8c-0.1-0.1-0.3-0.3-0.3-0.3C1254,414.3,1253.1,413.5,1252.1,412.6z"/>
	<path class="st2" d="M1252.1,412.6c0.9,0.8,1.8,1.7,2.8,2.5c0.1,0.1,0.3,0.3,0.3,0.3l0.1,0.1c0.3,0.3,0.6,0.5,1,0.8
		c-3.2-2.9-4.3-4-4.3-4S1252,412.5,1252.1,412.6z"/>
	<path class="st2" d="M1308.6,454.2c1,0.7,2.3,1.2,3.3,1.9c0.4,0.3,0.8,0.4,1.1,0.7c0.4,0.3,0.6,0.3,1,0.5c-4-2.3-5.7-3.2-5.8-3.2
		C1308.4,453.9,1308.4,454.1,1308.6,454.2z"/>
	<path class="st2" d="M504,1295c0,0-0.4-1.1-0.8-2.6C503.8,1294.2,504,1295,504,1295z"/>
	<path class="st2" d="M1686.1,510.2c-26.3-22.4-57.2-37.5-90.2-43.2c-19.4-3.3-38.5-4.8-57.7-4.8c-15.2,0-30.4,0.8-45.7,2.3
		c-32,2.9-64,7.3-96.1,7.6c-1.3,0-2.7,0-3.9,0c-12.1,0-24.3-0.7-36.4-2.3c-11.9-2.3-23.7-5.4-35-9.9c-2.3-0.9-4.6-1.9-6.8-2.9
		c0.5,0.3,1,0.7,1.6,0.9c-0.9-0.5-1.8-1.1-2.8-1.5c-0.3-0.3-0.6-0.3-1-0.5c-1.3-0.7-2.8-1.5-3.5-1.9c-4.6-2.5-9.1-5.2-13.5-8.1
		c-11.1-7.2-21.8-15.2-32.1-23.8c-2.3-1.9-4.6-3.8-6.8-5.8c0.6,0.7,1.3,1.2,2,1.9c-1-0.9-2-1.9-3.2-2.8c-1-0.9-2.4-2.3-3-2.8
		c-4.2-3.8-8.2-7.7-12.4-11.8c-12-11.7-24-23.8-36.1-35.9c-0.5,0.1-1,0.3-1.5,0.3c-6.5,0.7-12.9,0.9-19.4,0.9
		c-6.3,0-12.5-0.3-18.8-0.8c-19.6-3.6-38.5-9.8-56.9-17.2c-26.3-12.2-51.5-26.4-76.8-40.5c-30.4-17.1-60.8-33-92.6-46.8
		c-9,2.3-17.8,5.2-26.3,8.2c-65,23.8-120.9,67.4-176.6,111.4c-28.7,22.7-57.7,45-88.6,63.6c-7.5,4.5-15.1,8.5-22.8,12.7
		c-1.4,0.7-2.8,1.3-4.2,1.9c-4.4,2-8.9,3.8-13.3,5.6c-15.7,6.1-31.6,10.6-47.8,13.5c-42.6,5.6-85.5,2.8-128.3,5.7
		c-18.7,1.2-37.1,3.6-55,7.7c-19.2,39.2-37.7,78.7-62.9,114.3c-26.1,33.7-55.9,64-83.9,95.9c-30,34.1-59.5,70.6-78.6,112.5
		c2,66,21.4,131.4,56.2,183.8c12.7,19.1,26.1,37,42.3,52.1c17.8,16.7,36.6,31.4,56.7,44.1c35.8,22.7,74,40.7,108,67.2
		c3.7,2.9,7.3,6,10.9,8.9c2.2,2,4.3,4,6.5,6.1c7.8,7.7,15.2,15.8,22.1,24.4c3.8,4.6,7.5,9.4,11,14.2c1.9,2.4,6.7,10.5,7,10.5
		c0.1,0-0.9-1.6-3.4-6c5.7,9.8,12,19.1,17.3,29.3c5.3,10.1,10.4,20.5,14.8,31.1c1,2.4,2,4.9,3,7.4c0.5,1.2,1.3,3.6,1.9,5.6
		c-0.4-1.2-0.9-2.9-1.6-5.2c1.5,5.2,3.5,10.2,5.2,15.2c6.6,21.2,11.4,43.2,14.4,65.5c0,0.3,0,0.4,0.1,0.5c25,6,51.1,8.5,76.5,8.5
		c0.6,0,1.3,0,1.9,0c67.7-0.3,133.1-20.4,197.6-39.4c33-9.8,66.3-18.7,100.2-24.1c22.5-2.6,45.2-3.8,67.8-3.8
		c30.5,0,60.8,2.3,91.1,6c62.7,9.4,124.5,24.9,185.8,41.7c62.9,17.2,125.2,37.1,189,50.6c4.4,0.9,8.7,1.9,13.3,2.6
		c15.8-6.6,31.5-13.9,46.9-22.3c61.2-32.5,116.3-81.4,158.3-142.3c10.6-15.4,20.4-31.1,29.7-47.4c1.9-20.3,3.5-40.5,5.4-60.8
		c6.7-71.7,13.3-143.2,20-214.8c5.8-62.5,12.4-125.2,13.4-188c1-64.9-4-131.6-21.9-194.1C1693.2,530.6,1689.8,520.3,1686.1,510.2z
		 M1434.3,1306.1c0,0,1-0.5,3.9-1.7C1436.4,1305.3,1434.3,1306.1,1434.3,1306.1z M1524.3,1247c0.5-0.4,1-0.9,1.5-1.5
		C1525.6,1245.8,1525,1246.5,1524.3,1247z M1609.1,576.2c0.1,0,1.9,0.7,3.8,1.6C1610,576.6,1609,576.2,1609.1,576.2z M1635,592.5
		c0.1,0.1,0.3,0.3,0.4,0.3c1,0.9,1.9,1.9,2.9,2.8c0.6,0.7,1,1.1,0.9,1.1C1639.3,596.8,1638.1,595.7,1635,592.5z"/>
	<path class="st2" d="M1525.7,1245.7c-0.5,0.5-1,0.9-1.5,1.5C1525,1246.5,1525.6,1245.8,1525.7,1245.7z"/>
	<path class="st2" d="M1612.9,577.8c-1.8-0.8-3.7-1.6-3.8-1.6C1609,576.2,1610,576.6,1612.9,577.8z"/>
	<path class="st2" d="M1635.5,592.9c-0.1-0.1-0.3-0.3-0.4-0.3c3,3.2,4.2,4.2,4.3,4.2s-0.3-0.4-0.9-1.1
		C1637.6,594.8,1636.4,593.8,1635.5,592.9z"/>
	<path class="st2" d="M1438.2,1304.4c-2.8,1.3-3.9,1.7-3.9,1.7S1436.4,1305.3,1438.2,1304.4z"/>
</g>
<path class="st0" d="M1717.8,737.7c-1.5,0-2.5,1.2-2.5,2.6V753c0,1.5,1.1,2.6,2.5,2.6c1.5,0,2.5-1.2,2.5-2.6v-12.7
	C1720.2,738.8,1719.1,737.7,1717.8,737.7z"/>
<path class="st0" d="M1707.5,752.6h-12.4c-1.5,0-2.5,1.2-2.5,2.6s1.1,2.6,2.5,2.6h12.4c1.5,0,2.5-1.2,2.5-2.6
	C1710.2,753.8,1708.9,752.6,1707.5,752.6z"/>
<path class="st0" d="M1717.8,712.1c-1.5,0-2.5,1.2-2.5,2.6v12.7c0,1.5,1.1,2.6,2.5,2.6c1.5,0,2.5-1.2,2.5-2.6v-12.6
	C1720.2,713.3,1719.1,712.1,1717.8,712.1z"/>
<path class="st0" d="M1682.8,752.6h-12.4c-1.5,0-2.5,1.2-2.5,2.6s1.1,2.6,2.5,2.6h12.4c1.5,0,2.5-1.2,2.5-2.6
	C1685.5,753.8,1684.4,752.6,1682.8,752.6z"/>
<path class="st3" d="M271,1156.5c-17.5,18.3-27.3,42.4-27.2,67.6c0.3,31.4,14.3,58.4,35.3,79.9c-8.6-48.8,4.6-102.3,32.9-141.8
	c12.3-17.1,26.7-32.1,42.8-44.9c-9.9,2.5-20,5.2-29.7,8.5C305.4,1132.3,285.6,1141.4,271,1156.5z"/>
<path class="st3" d="M788.8,1092.7c42.1,11.7,85.1,20,128.4,26c7,0.9,13.9,1.7,20.9,2.5c-42-8.7-83.2-20.4-123.3-35.6
	c-4.9-21.9-23.7-39.2-47.8-39.2c-0.1,0-0.3,0-0.4,0c-36.3,0.3-72.6,2.8-108.7,7c28.5,1.5,57.1,3.2,85.6,3.2
	C766.3,1056.6,783.9,1072.3,788.8,1092.7z"/>
<path class="st3" d="M799.6,1360.3c-9.2-1.1-18.6-1.5-27.8-1.5c-8.1,0-16.2,0.4-24.3,1.2c-14.5,2.3-28.8,5.8-42.8,10.1
	c17.3,3,34.3,7.3,50.7,13.5c36.6,16.6,68.8,42.4,108.8,51.1c12.8,2.8,25.4,4.1,38.1,4.1c14.2,0,28.5-1.6,42.8-4.6
	c16.6-3.6,32.8-9.4,48.6-16c-11-2.8-21.8-6-32.5-9.4C907.6,1391.4,855.4,1368.9,799.6,1360.3z"/>
<path class="st3" d="M1615,1131.6c-15.3-0.4-30.5-0.5-45.7-0.5c-28.2,0-56.4,0.7-84.6,1.5c15.6,0.9,31.1,1.9,46.7,3.2
	c47.8,4.1,94.4,10.7,138.3,30.5c40.6,18.3,71.3,49.9,88.3,89.8c15.2-26,11.8-59.6-6.8-83.2C1719.1,1132.3,1662.5,1132.8,1615,1131.6
	z"/>
<path class="st3" d="M643.5,1366.1c-46.9,0-94.1,4.8-141.1,5.3c-2.8,0-5.6,0.1-8.3,0.1c-62.9,0-129.4-8.6-183.2-42.4
	c-11.5-7.3-22.1-15.6-31.5-25.2c3.5,20.5,11.1,40.3,22.9,57.8c22.5,33.3,55.5,55.6,94,68.1c21.5,6.9,43.8,9.8,66,9.8
	c17,0,33.9-1.6,50.7-4.4c67.3-11,127.1-46,191.8-65.5c-1.9-0.3-3.8-0.7-5.7-0.9C680.5,1366.9,661.9,1366.1,643.5,1366.1z"/>
<path class="st3" d="M428.8,1098.2c35.2-8.9,70.6-17.4,106.3-24.6c40.6-8.3,81.6-15.4,122.8-20.1c-12.5-0.7-25-1.3-37.7-1.9
	c-10.2-0.4-20.4-0.7-30.5-0.7c-30.5,0-60.7,1.9-91,6.5c-52.1,7.9-103.2,27.4-143.7,59.9c6.6-1.7,13.3-3.3,19.7-5.2
	C392.7,1107.4,410.7,1102.7,428.8,1098.2z"/>
<path class="st3" d="M1031.7,1135.6c51.1,5.2,102.6,7,154,7c42.6,0,85.3-1.3,127.9-3c57.1-2.3,114-5.3,171-7.2
	c-44.8-2.5-89.8-3.2-134.7-3.2c-39,0-77.7,0.5-116.6,1.1c-26.4,0.3-53,0.7-79.4,0.7c-69.1,0-138-1.7-206.8-8.7
	c-2.9-0.3-5.9-0.7-8.9-0.9c21.6,4.5,43.5,8.2,65.4,11.3C1013,1133.6,1022.3,1134.7,1031.7,1135.6z"/>
<path class="st3" d="M1758.1,1256c-1.4,2.3-2.8,4.5-4.4,6.6c-16.2,21.7-38.6,36.6-62.7,48.9c-77.3,39.7-165.5,50.1-251.9,50.1
	c-4.4,0-8.9,0-13.3-0.1c-59.6-0.7-119.3-5.6-178.9-5.6c-29,0-58.1,1.2-86.9,4.5c-31.5,4.6-62.5,12.2-92,23.7
	c-19.1,8.2-37.7,17.6-56.9,26c-5.8,2.5-11.6,5.2-17.5,7.6c29.3,7.7,59.6,12.7,89.8,12.7c21.1,0,42.1-2.4,62.9-8.1
	c36.6-10.1,69.2-29.7,103.7-44.7c13.7-5.2,27.5-9.3,41.9-11.7c7.8-0.8,15.8-1.1,23.7-1.1c10.4,0,20.6,0.7,31,1.7
	c91.3,14,173.6,63.9,266.7,69.7c4.2,0.3,8.5,0.4,12.8,0.4c41.2,0,85.6-12.5,113-43.9c31-35.8,39.1-85.2,22.6-129.3
	C1760.1,1261.1,1759.1,1258.5,1758.1,1256z"/>
<path class="st4" d="M1669.7,1166.3c-44-19.7-90.5-26.4-138.3-30.5c-15.6-1.3-31.1-2.4-46.7-3.2c-57.1,1.9-114,4.8-171,7.2
	c-42.6,1.7-85.3,3-127.9,3c-51.5,0-102.9-1.9-154-7c-9.4-0.9-18.7-2-28-3.2c-22-3-43.9-6.8-65.4-11.3c-7-0.8-13.9-1.6-20.9-2.5
	c-43.4-6-86.4-14.3-128.4-26c-4.9-20.4-22.5-36.2-45.3-36.2c-28.6-0.1-57.1-1.7-85.6-3.2c-41.2,4.8-82.4,11.8-122.8,20.1
	c-35.5,7.3-71,15.8-106.3,24.6c-18.1,4.6-36.1,9.4-54.1,14c-6.6,1.7-13.2,3.4-19.7,5.2c-16.2,12.9-30.6,27.8-42.8,44.9
	c-28.3,39.5-41.5,93-32.9,141.8c9.4,9.5,20,18,31.5,25.2c53.8,33.8,120.3,42.4,183.2,42.4c2.8,0,5.7,0,8.3-0.1
	c46.9-0.7,94.1-5.3,141.1-5.3c18.6,0,37.2,0.7,55.7,2.8c1.9,0.3,3.8,0.7,5.7,0.9c14-4.2,28.2-7.7,42.8-10.1
	c8.1-0.8,16.2-1.2,24.3-1.2c9.2,0,18.6,0.5,27.8,1.5c55.8,8.6,108,31.1,161.4,48.4c10.8,3.4,21.5,6.6,32.5,9.4
	c5.9-2.5,11.8-5,17.5-7.6c19.1-8.5,37.7-17.8,56.9-26c29.7-11.5,60.6-19.1,92-23.7c29-3.4,57.9-4.5,86.9-4.5
	c59.6,0,119.3,4.9,178.9,5.6c4.4,0.1,8.9,0.1,13.3,0.1c86.4,0,174.5-10.3,251.9-50.1c24.2-12.3,46.6-27.2,62.7-48.9
	c1.6-2.1,3.2-4.4,4.4-6.6C1741,1216.2,1710.4,1184.6,1669.7,1166.3z"/>
<linearGradient id="SVGID_1_" gradientUnits="userSpaceOnUse" x1="1443.2233" y1="2474.0105" x2="1460.1028" y2="2020.4149" gradientTransform="matrix(1 0 0 -1 0 3410.501)">
	<stop  offset="0" style="stop-color:#F8F9FB"/>
	<stop  offset="1" style="stop-color:#A0BDE5"/>
</linearGradient>
<path class="st5" d="M1735,707.4l-455.7-0.5c-19.6,0-36.8,13.4-42.4,32.7l-104,366.7h503.4l114.9-376
	C1754.6,718.9,1746.5,707.4,1735,707.4z"/>
<linearGradient id="SVGID_00000162324258945200852310000017148671496556039353_" gradientUnits="userSpaceOnUse" x1="1257.25" y1="2253.4722" x2="1257.25" y2="2380.4219" gradientTransform="matrix(1 0 0 -1 0 3410.501)">
	<stop  offset="0" style="stop-color:#F8F9FB"/>
	<stop  offset="1" style="stop-color:#A0BDE5"/>
</linearGradient>
<path style="fill:url(#SVGID_00000162324258945200852310000017148671496556039353_);" d="M882.4,1151.5h723.4
	c14.5,0,26.3-12.2,26.3-27.2v-16.8H882.4V1151.5z"/>
<path class="st7" d="M1466.1,883.5c9,9.9,5.7,28.4-7.5,41.1s-31.1,15-40.2,5c-9-9.9-5.7-28.4,7.5-41.1
	C1439.2,875.8,1457.2,873.5,1466.1,883.5z"/>
<path class="st8" d="M1466.3,900.2c-5.3,16.2-21.8,28.9-36.8,28.5c-6.6-0.3-11.9-3-15.3-7.3c2.2,8.5,8.9,14.3,18.7,14.6
	c15.1,0.5,31.6-12.2,36.8-28.5c2.9-9,1.8-17.2-2.5-22.8C1468.3,889,1468,894.3,1466.3,900.2z"/>
<g transform="matrix(1, 0, 0, 1, 1.1368683094535245e-13, -176.93859863281247)">
	
		<linearGradient id="SVGID_00000065062893820707474030000016149332521490125714_" gradientUnits="userSpaceOnUse" x1="490.0377" y1="2829.1562" x2="472.3371" y2="2707.2703" gradientTransform="matrix(1 0 0 -1 0 3764.3782)">
		<stop  offset="0" style="stop-color:#3576EE"/>
		<stop  offset="1" style="stop-color:#F77FA4"/>
	</linearGradient>
	<path style="fill:url(#SVGID_00000065062893820707474030000016149332521490125714_);" d="M523.4,1043.4c-3-6-6.3-11.5-9.1-17.6
		c-2.8-6.2-4.6-12.7-5.2-19.6c-1.1-13.1-0.5-26-3.8-38.8c-2.8-10.6-7.3-20.9-13.3-29.9c-13.7-20.5-34.3-35.9-57.9-41.3
		c-3.2-0.7-5.6,3.2-3.2,5.6c24.4,26.4,24.2,66.2,18,99.6c-3.8,20.5-9.5,40.5-13.3,60.9c-3.7,20.1-4.9,40.7-3.5,61.2
		c1.5,21.6,5.8,42.9,12.9,63.3c-0.5,1.3,0.3,3,1.5,4c1.5,3.6,6.8,2.3,6.5-1.1c20.9-10.2,40.6-23.6,55.5-41.9
		c15.6-19.1,25.4-43.6,24.5-68.8C532.3,1066.4,529,1054.5,523.4,1043.4z"/>
	<path class="st10" d="M508.7,1067.6c-3.3,5.2-7,10.2-11,14.7c0.6-8.9,0.4-18-0.9-26.9c-1.5-11-5.2-21.2-8.9-31.4
		c6.6-12.3,10.6-25.8,11.9-40c0.5-5.3-7.5-5.2-8,0c-0.9,10.2-3.5,20.1-7.6,29.3c-3.3-11-4.2-21.9-4.8-33.4
		c-0.6-13.5-1.9-27.2-9-38.8c-2.8-4.5-9.6-0.3-7,4.1c6.1,10.1,7.2,21.7,7.8,33.4c0,0.5,0.1,1.1,0.1,1.5c-2-1.3-4.2-2.6-6.2-3.8
		c-4.4-2.6-8.5,4.4-4,7.2c3.5,2.3,7.1,4.4,10.6,6.6c0.1,0,0.1,0.1,0.3,0.1c0.6,8.1,1.5,16,3.8,23.6c3.5,11.8,9.1,23.1,11.8,35.2
		c0.1,0.4,0.3,0.8,0.3,1.3c-4.9-2.6-9.2-6.4-12.4-11c-3-4.4-9.9-0.3-7,4.1c5.3,7.7,12.3,13.1,20.9,16.4h0.1c1,8.5,1,17,0.3,25.6
		c-1.4,13.9-5.3,27.4-11.5,39.9c-2.3,4.8,4.6,8.9,7,4.1c5.3-10.6,9.1-22.1,11.1-33.8c0.5-0.3,1-0.5,1.5-1.1
		c6.8-6.8,12.8-14.3,18-22.5C518.5,1067.2,511.6,1063.1,508.7,1067.6z"/>
</g>
<linearGradient id="SVGID_00000093145849009206488660000011610585934825691287_" gradientUnits="userSpaceOnUse" x1="367.8583" y1="2755.655" x2="367.8583" y2="2347.0757" gradientTransform="matrix(1 0 0 -1 0 3410.501)">
	<stop  offset="0" style="stop-color:#3576EE"/>
	<stop  offset="1" style="stop-color:#F77FA4"/>
</linearGradient>
<path style="fill:url(#SVGID_00000093145849009206488660000011610585934825691287_);" d="M467,878.6c-6.6-12.3-15.8-22.3-26.9-30.3
	c-12-8.9-25.4-15.8-35.3-27.3c-9.6-11.1-15.8-25.6-17.5-40.4c-1.9-17.2,1-34.3,2.2-51.4c1.9-26.8-2.8-61.9-30-73.9
	c-3.3-1.5-6.2,0.9-5.7,4.5c2.8,18.9-6.5,37.6-18.1,51.4c-12.5,14.8-28.3,26.1-42.8,38.8c-13.3,11.7-25.9,25.2-33,41.9
	c-7.2,17.2-7.2,36.3-1,53.8c6.1,17.2,17.3,32.1,31.2,43.3c7.1,5.7,14.5,10.7,22.5,15c7.5,4,15.3,7.3,23.2,10.9
	c7.3,3.4,14.9,7.3,21,13c6.6,6,10.8,13.6,13.2,22.4c4.7,16.8,3.2,34.7,6.6,51.8c3.2,16,10.9,31.8,26.2,38.6
	c17.5,7.7,36.4,2.5,52.9-5.2c1.5-0.7,3-1.5,4.4-2.3c-1.6,8.7-3,17.5-4,26.4c-0.6,5.2,7.2,5,7.8,0c1.1-10.2,2.9-20.4,4.8-30.7
	c0.1-0.1,0.3-0.1,0.3-0.3c2.5-1.3,2.3-4.2,0.9-6C479.3,974.1,491.4,923.9,467,878.6z"/>
<path class="st10" d="M442.7,910.1c-2,10.2-4.7,20.3-8,30.1c-0.1-0.5-0.3-1.1-0.3-1.5c-2-13.1-4.4-26.4-9.1-38.7
	c-4.4-11.7-10.8-22.3-20.4-30.1c-0.9-0.7-1.8-1.5-2.8-2.1c2.8-9.1,3.4-18.5,2.2-28.1c-0.9-6.4-10.1-3.6-9.2,2.6
	c0.9,6.8,0.4,13.4-1.3,19.7c-6.6-4-13.3-7.4-20-11c-9.2-4.9-18.7-10.5-25.7-18.4c12-9.4,19.4-24.2,19.4-40c0-6.4-9.6-6.4-9.6,0
	c0,12.6-5.7,24.5-15.3,32.1c-4.7-9.3-5.2-19.7-2.7-30.1c7-28.9,30.2-50.5,32.5-81.1c0.5-6.4-9.1-6.4-9.6,0
	c-1.6,23.1-17.1,41.7-26.4,62.4c-3.8-7-5.4-15.1-4.3-23.1c1-6.2-8.2-8.9-9.2-2.6c-1.9,11.9,0.5,24,7.2,34.1c0.6,0.9,1.5,1.5,2.3,1.9
	c-3.8,11.8-5.3,24.8-1.1,36.6c1.6,4.9,4.2,9.3,7.2,13.2c-12.3,3.6-24.4-2.1-29.9-14.3c-2.5-5.8-10.8-0.8-8.2,5
	c7.3,16.8,26.7,24.8,43.3,18c0.6-0.3,1.3-0.7,1.6-1.1c2.2,2,4.4,4,6.7,5.7c15.6,11.8,35.8,17.6,49.8,31.3
	c-13.4,10.7-31.8,11.3-46.2,1.9c-5.3-3.4-10,5.2-4.8,8.5c18.1,11.8,40.7,10.2,57.4-3.2c0.6,1.1,1.4,2,2,3c6.5,10.5,9.6,22.7,12,34.6
	c1.9,9.8,3.5,19.6,4.7,29.5c-10.4-0.8-19.6-5.7-26.4-13.5c-4.2-4.8-10.9,2.3-6.8,7c8.7,9.9,20.7,15.6,33.5,16.4c0.3,0,0.5,0,0.6,0
	c0.1,1.5,0.3,2.8,0.3,4.2c2.3,33,0.1,66.1-6.7,98.3c-1.3,6.2,8,8.9,9.2,2.6c6.1-28.8,8.7-58.2,7.7-87.6c-0.3-7.3-0.6-14.7-1.5-22
	c6.6-15.4,11.5-31.3,14.8-47.7C453.2,906.5,444,903.9,442.7,910.1z"/>
<linearGradient id="SVGID_00000101783702251362854610000017372312321899861420_" gradientUnits="userSpaceOnUse" x1="566.1505" y1="2723.8462" x2="536.4555" y2="2528.7649" gradientTransform="matrix(1 0 0 -1 0 3410.501)">
	<stop  offset="0" style="stop-color:#3576EE"/>
	<stop  offset="1" style="stop-color:#F77FA4"/>
</linearGradient>
<path style="fill:url(#SVGID_00000101783702251362854610000017372312321899861420_);" d="M615.5,857.8c-2.3-10.2-2.8-20.5-1.5-30.9
	c2.7-20.4,10-39.7,12.4-60.3c2-18.2-0.8-35.5-9.5-51.5c-12.8-23.2-33.9-40-50.2-60.5c-3-9.4-8.2-18.2-16.1-25.2
	c-3.8-3.4-8.6,1.1-6.6,5.4c4,8.7,9.2,16.4,14.9,23.8c4.8,15.9,2.9,34.3-2.3,49.8c-10.6,31.8-32.6,57.9-43,89.8
	c-4.7,14.4-6.8,29.9-4.2,45c2.5,14.3,10.5,26.8,14,40.7c8.7,34.8-29.2,53.7-50.6,71.7c-26.3,22.3-47.2,50.9-60.7,83.1
	c-0.4,1.1-0.5,2-0.3,2.9c-1.4,1.5-2.7,2.8-3.9,4.4c-3.3,4.4,2.8,10.6,6.1,6.1c12.5-16.6,34-18,52.9-19.5c4-0.3,8-0.7,12-1.1
	c10.4,2.4,21,3,31.8-0.1c9.2-2.6,16.8-8.1,23.2-15.6c6.1-7.3,11.1-15.9,18.8-21.6c12.7-9.5,29.2-11,43.8-15.8
	c16.2-5.3,29.1-15.6,33.9-33c5.6-19.5,0.4-39.9-5.8-58.4C621.3,877.5,617.8,867.8,615.5,857.8z"/>
<path class="st10" d="M590.5,779.2c-2.8,9.5-8.2,18-15.6,24.2c1.5-5.4,3.3-10.7,5.1-16c8.1-24.6,16.6-51.7,7.3-77.2
	c-2.2-6-11.4-3.3-9.2,2.6c4,11.4,4.4,23.2,2.7,34.8c-1.9-3.8-2.9-8.1-2.8-12.7c0.1-6.4-9.5-6.4-9.6,0c-0.3,9.5,3.3,18.8,9.9,25.6
	c-1.9,7.7-4.4,15.4-6.8,22.8c-3.7,11.4-7.5,22.8-9.5,34.7c-1.4,8.5-1.6,17.2-1.4,25.8c-8-6.6-13.3-16.2-14.3-26.9
	c-0.6-6.4-10.2-6.4-9.6,0c1.5,16.4,10.6,31.4,24.7,39.4c1.5,16.6,4,34.2,1.5,50.9c-0.8,1.1-1,2.4-0.6,3.7c-0.9,4.4-2.2,8.9-4,13.1
	c-5.7,13.4-16.2,21.1-27.8,27.6c0.6-6.8,1.8-13.4,3.3-20c1.5-6.2-7.8-8.9-9.2-2.6c-2.2,9.3-3.5,18.7-4,28.1c-3.5,1.9-7,3.8-10.2,5.8
	c-9.7,6-19.1,13.9-24,24.6c-4.7,10.5-5.3,22.9,0.8,33c3.3,5.3,11.6,0.4,8.2-5c-5.2-8.5-3.5-18.8,1.4-26.9c14,1.5,28.2-0.8,41.2-6.5
	c2.4-1.1,4-3.2,3.3-6.1c-0.6-2.3-3.5-4.5-5.9-3.4c-9.9,4.4-20.2,6.5-30.7,6.5c5.1-4.5,11.1-8.1,16.8-11.3
	c9.5-5.2,19.2-9.8,27.8-16.7c8.2-6.5,14.3-14.7,18.3-24.5c1.9-4.5,3.2-9.1,4-13.8c12.5-8.6,20.4-23.1,21.1-38.7
	c0.3-6.4-9.4-6.4-9.6,0c-0.4,9.1-4,17.6-9.9,24.2c0.6-12.7-0.6-25.6-1.9-38.2c-1.1-12.6-2.2-25.4-0.3-38c0.3-1.9,0.6-3.7,1-5.6
	c1,0.3,2,0,3.2-0.7c12-7.8,20.7-19.7,24.9-33.8C601.6,775.7,592.4,773.1,590.5,779.2z"/>
<linearGradient id="SVGID_00000031179153789631754980000018108946981717218949_" gradientUnits="userSpaceOnUse" x1="468.0846" y1="2345.6851" x2="468.0846" y2="2104.2852" gradientTransform="matrix(1 0 0 -1 0 3410.501)">
	<stop  offset="0" style="stop-color:#6ED1CE"/>
	<stop  offset="1" style="stop-color:#45A1D0"/>
</linearGradient>
<path style="fill:url(#SVGID_00000031179153789631754980000018108946981717218949_);" d="M560.5,1012.8H468h-92.5
	c-12,0-20.7,13.9-17.8,28.2l34.3,175.3c4.4,22.3,20.4,37.9,38.8,37.9h37.3h37.4c18.5,0,34.5-15.6,38.8-37.9l34.3-175.3
	C581.1,1026.6,572.4,1012.8,560.5,1012.8z"/>
<rect x="343.9" y="407.7" class="st0" width="1933.2" height="238"/>
<g class="st14">
	<path class="st15" d="M403.1,541.1c0,10.4,1,16.5,3,18.5c1.5,1.6,3.5,2.5,5.9,2.9c2.4,0.4,8,0.5,16.6,0.5h22.3
		c11.6,0,19.4-1.6,23.3-4.8c3.9-3.2,5.8-9.7,5.8-19.5c0-2.6-0.1-5.7-0.3-9.1c-0.3-6.8-0.5-10.9-0.5-12.3c0-7.7,2.9-11.5,8.9-11.5
		c7.1,0,10.6,3.5,10.6,10.6c0,2.1-0.1,3.8-0.3,5l-1.8,13.5c-0.5,3.9-0.8,8-0.8,12.2c0,2.5,0.2,6.1,0.6,11c0.4,4.9,0.6,8.5,0.6,11
		c0,7.9-4.3,11.9-12.9,11.9c-1.7,0-5.6-0.3-11.6-0.9c-4-0.3-10.3-0.6-18.7-0.9h-19h-40.5c-4,0-10.8,0.4-20.2,1.1
		c-1.4,0-3.7,0.1-7,0.4c-3.3,0.3-5.9,0.4-7.7,0.4c-7.1,0-10.6-3.2-10.6-9.5c0-5.7,2.6-8.5,7.8-8.5c1.3,0,3.4,0.3,6.1,0.8
		c2.7,0.5,4.7,0.8,6.1,0.8c8.6,0,12.9-6.6,12.9-19.9V438.4c0-13.1-4.3-19.6-12.9-19.6c-2.4,0-4.1,0.2-5.3,0.5
		c-2.7,0.5-5,0.8-6.8,0.8c-2.2,0-4-0.8-5.6-2.5c-1.5-1.7-2.3-3.8-2.3-6.2c0-6.2,3.6-9.3,10.9-9.3c1,0,2.3,0.1,3.8,0.3l13.4,1.6
		c7.4,0.9,12.9,1.3,16.4,1.3c4.4,0,9.8-0.4,16.2-1.3l11.6-1.6c1.3-0.2,2.4-0.3,3.3-0.3c7.6,0,11.4,3.1,11.4,9.3
		c0,2.5-0.8,4.6-2.3,6.2c-1.5,1.7-3.4,2.5-5.6,2.5c-1.7,0-4-0.3-6.8-0.8c-1.2-0.4-3-0.5-5.3-0.5c-8.6,0-12.9,6.5-12.9,19.5V541.1z"
		/>
	<path class="st15" d="M629.8,502c0,6.7-0.4,10.8-1.3,12.3c-0.8,1.5-3.3,2.3-7.3,2.3h-80.5c-2.2,0-3.6,0.3-4.3,0.9
		c-0.7,0.6-1,1.6-1,3c0,13.2,3.8,24.3,11.4,33.1c7.6,8.8,17,13.2,28.3,13.2c7.4,0,14.2-2.1,20.4-6.4c6.2-4.2,10.2-9.6,12-16.2
		l2.3-7.7c1.2-4.2,4-6.4,8.3-6.4c6.2,0,9.4,3.4,9.4,10.1c0,11.5-5.6,21.7-16.7,30.6c-11.1,8.9-23.8,13.4-38,13.4
		c-17.7,0-31.8-6.2-42.3-18.7c-10.5-12.5-15.7-29.2-15.7-50.2c0-21.6,5.6-39,16.7-52.5c11.1-13.4,25.6-20.1,43.5-20.1
		c15.9,0,28.9,5.6,39.2,16.7C624.7,470.8,629.8,484.9,629.8,502z M538,495.1c0,2.5,1.9,3.7,5.6,3.7H604c3.5,0,5.3-1.2,5.3-3.7
		c0-9.4-3.4-17.5-10.1-24.4c-6.7-6.9-14.7-10.3-23.8-10.3c-9.4,0-18,3.6-25.8,10.7C541.9,478.3,538,486.3,538,495.1z"/>
	<path class="st15" d="M718.9,543.4v-17c0.2-7.2,3.2-10.9,9.1-10.9c5.9,0,8.9,4.1,8.9,12.2c0,19.3-2.3,32.7-7,40.3
		c-6.4,10.2-16.8,15.4-31.4,15.4c-13.4,0-23-4.5-28.6-13.5c-4.2-6.5-6.3-17.7-6.3-33.4v-63.6c0-3.7-1.6-5.6-4.9-5.6h-8.3
		c-2.8,0-5-0.9-6.9-2.8s-2.7-4.1-2.7-6.8c0-2.5,0.9-4.7,2.7-6.6c1.8-1.9,3.8-2.9,5.9-2.9h9.9c2.9,0,4.3-1.7,4.3-5v-27.3
		c0-6.7,3.3-10.1,9.9-10.1c6.1,0,9.1,3.4,9.1,10.1v28.4c0,2.7,1.5,4,4.6,4h27.6c6.4,0,9.6,3.1,9.6,9.3c0,6.5-3.5,9.8-10.4,9.8H686
		c-2.4,0-3.5,1.9-3.5,5.6v65.2c0,18.5,5.9,27.8,17.7,27.8C712.1,565.9,718.4,558.4,718.9,543.4z"/>
	<path class="st15" d="M775.5,432.1c0-2.8-1.6-4.3-4.8-4.5h-5.1c-3.4-0.2-6.4-1.8-9-4.9c-2.6-3.1-3.9-6.8-3.9-11.1
		c0-5,1.7-9.2,5.1-12.6c3.4-3.4,7.6-5.1,12.7-5.1c5.7,0,10.5,2.4,14.3,7.3c3.8,4.9,5.7,11.1,5.7,18.7c0,14.7-5.2,29.1-15.7,43.5
		c-4,5.5-7.4,8.2-10.1,8.2c-3.4,0-5.1-1.8-5.1-5.3c0-1.2,1-3.2,3-5.8c3.2-4.4,6.2-9.5,8.9-15.4C774.2,439.2,775.5,434.9,775.5,432.1
		z"/>
	<path class="st15" d="M867.7,442.9c11.3,0,20.7,3.1,28.2,9.3v-1.1c0-6.5,2.7-9.8,8.1-9.8c5.6,0,8.3,2.8,8.3,8.5
		c0,1.1-0.1,3.7-0.4,8c-0.6,3.5-0.8,7.1-0.8,10.6c0,2.1,0.2,5.2,0.6,9.3c0.4,4.1,0.6,7.2,0.6,9.3c0,6.7-2.7,10.1-8.2,10.1
		c-5.3,0-8.1-2.8-8.2-8.5v-8.7c-0.2-5.3-3.1-9.8-8.7-13.6c-5.7-3.8-12.3-5.7-19.9-5.7c-7.8,0-14.3,2.1-19.5,6.2
		c-5.2,4.2-7.8,9.3-7.8,15.5c0,11.3,7.4,18,22.3,20.1l14.7,2.1c28.7,4.1,43,16.5,43,37.4c0,12.7-4.6,23-13.9,30.9
		c-9.3,7.9-21.4,11.8-36.3,11.8c-14,0-26.1-4.2-36.3-12.5c0,1.8,0,3.4,0,5c0,6.4-2.9,9.5-8.6,9.5c-6.2,0-9.4-3.6-9.4-10.9
		c0,1.2,0.5-3.4,1.5-13.8c0.3-2.5,0.5-4.9,0.5-7.4c0-4.2-0.3-8.2-1-11.9c-0.7-3.7-1-6.6-1-8.7c0-6.2,2.7-9.3,8.1-9.3
		c3.5,0,5.8,0.9,6.7,2.6c0.9,1.8,1.5,6.5,1.6,14c0.2,7.6,4,13.8,11.4,18.5c7.4,4.8,16.9,7.2,28.3,7.2c8.3,0,15.1-2.2,20.5-6.6
		c5.4-4.4,8.1-10,8.1-16.7c0-12-9.1-19-27.3-20.9c-17.4-1.9-30.6-5.5-39.7-10.7c-9.1-5.2-13.7-14.4-13.7-27.4
		c0-12.4,4.5-22.4,13.4-30.1C841.8,446.8,853.4,442.9,867.7,442.9z"/>
	<path class="st15" d="M1051.6,541.1c0,10.4,1,16.5,3,18.5c1.5,1.6,3.5,2.5,5.9,2.9c2.4,0.4,8,0.5,16.6,0.5h22.3
		c11.6,0,19.4-1.6,23.3-4.8c3.9-3.2,5.8-9.7,5.8-19.5c0-2.6-0.1-5.7-0.3-9.1c-0.3-6.8-0.5-10.9-0.5-12.3c0-7.7,2.9-11.5,8.9-11.5
		c7.1,0,10.6,3.5,10.6,10.6c0,2.1-0.1,3.8-0.3,5l-1.8,13.5c-0.5,3.9-0.8,8-0.8,12.2c0,2.5,0.2,6.1,0.6,11c0.4,4.9,0.6,8.5,0.6,11
		c0,7.9-4.3,11.9-12.9,11.9c-1.7,0-5.6-0.3-11.6-0.9c-4-0.3-10.3-0.6-18.7-0.9h-19H1043c-4,0-10.8,0.4-20.2,1.1
		c-1.4,0-3.7,0.1-7,0.4c-3.3,0.3-5.9,0.4-7.7,0.4c-7.1,0-10.6-3.2-10.6-9.5c0-5.7,2.6-8.5,7.8-8.5c1.3,0,3.4,0.3,6.1,0.8
		c2.7,0.5,4.7,0.8,6.1,0.8c8.6,0,12.9-6.6,12.9-19.9V438.4c0-13.1-4.3-19.6-12.9-19.6c-2.4,0-4.1,0.2-5.3,0.5
		c-2.7,0.5-5,0.8-6.8,0.8c-2.2,0-4-0.8-5.6-2.5c-1.5-1.7-2.3-3.8-2.3-6.2c0-6.2,3.6-9.3,10.9-9.3c1,0,2.3,0.1,3.8,0.3l13.4,1.6
		c7.4,0.9,12.9,1.3,16.4,1.3c4.4,0,9.8-0.4,16.2-1.3l11.6-1.6c1.3-0.2,2.4-0.3,3.3-0.3c7.6,0,11.4,3.1,11.4,9.3
		c0,2.5-0.8,4.6-2.3,6.2c-1.5,1.7-3.4,2.5-5.6,2.5c-1.7,0-4-0.3-6.8-0.8c-1.2-0.4-3-0.5-5.3-0.5c-8.6,0-12.9,6.5-12.9,19.5V541.1z"
		/>
	<path class="st15" d="M1278.3,502c0,6.7-0.4,10.8-1.3,12.3c-0.8,1.5-3.3,2.3-7.3,2.3h-80.5c-2.2,0-3.6,0.3-4.3,0.9
		c-0.7,0.6-1,1.6-1,3c0,13.2,3.8,24.3,11.4,33.1c7.6,8.8,17,13.2,28.3,13.2c7.4,0,14.2-2.1,20.4-6.4c6.2-4.2,10.2-9.6,12-16.2
		l2.3-7.7c1.2-4.2,4-6.4,8.3-6.4c6.2,0,9.4,3.4,9.4,10.1c0,11.5-5.6,21.7-16.7,30.6c-11.1,8.9-23.8,13.4-38,13.4
		c-17.7,0-31.8-6.2-42.3-18.7c-10.5-12.5-15.7-29.2-15.7-50.2c0-21.6,5.6-39,16.7-52.5c11.1-13.4,25.6-20.1,43.5-20.1
		c15.9,0,28.9,5.6,39.2,16.7C1273.1,470.8,1278.3,484.9,1278.3,502z M1186.4,495.1c0,2.5,1.9,3.7,5.6,3.7h60.5
		c3.5,0,5.3-1.2,5.3-3.7c0-9.4-3.4-17.5-10.1-24.4c-6.7-6.9-14.7-10.3-23.8-10.3c-9.4,0-18,3.6-25.8,10.7
		C1190.3,478.3,1186.4,486.3,1186.4,495.1z"/>
	<path class="st15" d="M1405.8,583.4c-13.8,0-22.4-6.3-25.6-18.8c-8.6,13.2-22.1,19.9-40.5,19.9c-13.7,0-24.6-3.5-32.8-10.6
		c-8.2-7.1-12.3-16.5-12.3-28.4c0-14.7,6-25.4,18-32.3c4.6-2.7,8.5-4.4,11.8-5.2s9.9-1.8,19.9-3c14.2-1.6,23.4-3.8,27.7-6.6
		c4.3-2.8,6.5-8,6.5-15.6c0-7.2-2.4-12.9-7.2-17.1c-4.8-4.1-11.5-6.2-20.1-6.2c-7.6,0-14.7,2.2-21.3,6.6c-2.5,1.8-3.8,3.6-3.8,5.6
		c0,0.7,0.8,1.6,2.3,2.6c2.4,1.8,3.5,4.8,3.5,9c0,3.5-1.2,6.5-3.7,8.7c-2.4,2.3-5.5,3.4-9.2,3.4c-4.4,0-8.1-1.6-11-4.8
		c-3-3.2-4.4-7.1-4.4-11.7c0-9.9,4.7-18.4,14-25.4c9.4-7.1,20.7-10.6,34-10.6c30.7,0,46,15.4,46,46.3v53.4c0,8.5,0.2,13.5,0.5,15.1
		c1,6.2,3.9,9.3,8.6,9.3c5.9,0,8.9-5.6,8.9-16.8v-12.9c0-5.6,2.6-8.4,7.7-8.4c5.5,0,8.2,4.2,8.2,12.7v1.3v15.1
		C1431.3,574.9,1422.6,583.4,1405.8,583.4z M1377.7,530.6v-18.8c-3.7,3.5-7.6,6-11.7,7.4c-4.1,1.4-11.5,2.6-22,3.7
		c-19.2,1.9-28.7,9.4-28.7,22.3c0,6.7,2.3,12,7,15.9c4.6,3.9,10.9,5.8,18.8,5.8c11.3,0,20.2-3.2,26.7-9.7
		C1374.2,550.8,1377.5,542,1377.7,530.6z"/>
	<path class="st15" d="M1477.9,455v7.3c8.8-12.9,20.5-19.3,35.2-19.3c11.8,0,21.4,3.5,28.7,10.5c7.3,7,11,15.9,11,26.9
		c0,7.8-1.9,14.1-5.6,18.9c-3.7,4.9-8.6,7.3-14.7,7.3c-3.9,0-7.2-1.2-9.9-3.7c-2.7-2.5-4-5.5-4-9c0-2.8,1-5.3,3-7.6
		c2-2.2,4.4-3.3,7.1-3.3c0.5,0,1.6,0.3,3.3,0.8c1-2.1,1.5-4.1,1.5-5.8c0-5.1-2.2-9.4-6.5-13c-4.3-3.5-9.7-5.3-16.1-5.3
		c-13.2,0-21.9,6.2-26.3,18.5c-2.7,7.6-4,19.1-4,34.4v17.5c0,11.8,0.1,18.5,0.3,19.9c0.8,10.1,3.5,15.1,7.8,15.1
		c2.2,0,4.5-0.3,6.8-0.9c1.9-0.5,3.5-0.7,4.8-0.7c5.4,0,8.1,2.8,8.1,8.4c0,6.1-3.4,9.1-10.3,9.1h-1c-2.5,0-6.3-0.3-11.5-0.9
		c-5.1-0.6-9-0.9-11.5-0.9c-6.7,0-12,0.2-15.9,0.5l-14.1,1.3c-6.9,0-10.3-3.1-10.3-9.3c0-5.5,3.2-8.2,9.7-8.2c1.7,0,3,0.1,3.8,0.3
		l3.8,0.8c1.7,0.4,2.9,0.5,3.6,0.5c4.3,0,6.6-4.1,6.9-12.2v-13.5l-0.8-60.2c-0.5-10.4-3-15.6-7.6-15.6c-1.4,0-3.2,0.3-5.6,0.8
		c-2.4,0.5-4.2,0.8-5.6,0.8c-5.6,0-8.3-2.8-8.3-8.5c0-6.2,3.6-9.3,10.9-9.3c1.7,0,4.2,0.2,7.6,0.7c3.4,0.4,5.9,0.7,7.6,0.7
		c1.3,0,3.5-0.2,6.6-0.7c1.3-0.4,2.9-0.7,4.8-0.7C1475.7,447.4,1477.9,450,1477.9,455z"/>
	<path class="st15" d="M1606.2,455.5v7.5c10.1-13.4,23.6-20.1,40.5-20.1c9.1,0,17.7,2.4,25.8,7.3c8.1,4.9,13.6,10.9,16.4,18.2
		c2.4,6,3.5,13.9,3.5,23.6v50.3c0,7.6,0.1,12.1,0.3,13.5c0.8,6,3.1,9,6.8,9c1.5,0,3.5-0.2,5.9-0.7c2.4-0.4,4.2-0.7,5.2-0.7
		c2.2,0,4.1,0.8,5.7,2.4c1.6,1.6,2.4,3.5,2.4,5.8c0,2.7-1,4.9-3,6.6c-2,1.8-4.5,2.6-7.3,2.6c-2.4,0-6.2-0.4-11.6-1.1
		c-5.4-0.7-10.5-1.1-15.2-1.1c-4.4,0-8,0.2-10.9,0.5c-8.4,1.1-12.9,1.6-13.4,1.6c-6.7,0-10.1-3.1-10.1-9.3c0-5.5,2.9-8.2,8.8-8.2
		c1.4,0,2.9,0.2,4.6,0.5c3.3,0.7,5.3,1.1,6.2,1.1c4.1,0,6.4-4.9,6.7-14.6V537v-16.2v-20.1c0-9.4-0.4-15.8-1.3-19.3
		c-1.5-6.7-4.8-11.9-9.8-15.6c-5.5-4.1-11.8-6.1-18.9-6.1c-13.4,0-23.1,5-29,15.1c-4,6.9-6,18.6-6,35.2v35.2
		c0,7.8,0.5,13.1,1.5,15.9c1,2.8,2.9,4.2,5.6,4.2c1.3,0,3.2-0.3,5.6-0.9c2.4-0.6,4.3-0.9,5.8-0.9c5.2,0,7.8,3,7.8,8.9
		c0,5.7-3.4,8.6-10.1,8.6c-1.4,0-5.7-0.5-13.2-1.6c-3.7-0.5-7.8-0.8-12.4-0.8c-3.5,0-8.3,0.4-14.2,1.1c-7.4,0.9-11.6,1.3-12.7,1.3
		c-7.1,0-10.6-3-10.6-9c0-5.7,2.7-8.5,8.2-8.5c0.9,0,2.4,0.3,4.8,0.8c2.3,0.5,4.6,0.8,6.8,0.8c5.2,0,7.8-5.1,8-15.4v-29.4v-32.1V479
		c-0.3-6-1.1-10.1-2.2-12.3c-1.1-2.2-3.1-3.3-5.8-3.3c-1.2,0-3,0.2-5.3,0.7c-2.3,0.4-4.1,0.7-5.3,0.7c-6.2,0-9.3-2.8-9.3-8.5
		c0-5.8,3.8-8.7,11.4-8.7c1,0,1.9,0.1,2.5,0.3l9.4,1.1c2.7,0,5.1-0.2,7.1-0.7c4.4-0.4,6.7-0.7,6.8-0.7
		C1603.7,447.4,1606.2,450.1,1606.2,455.5z"/>
</g>
</svg>
