<?xml version="1.0" encoding="utf-8"?>
<!-- Generator: Adobe Illustrator 26.5.0, SVG Export Plug-In . SVG Version: 6.00 Build 0)  -->
<svg version="1.1" id="master-artboard" xmlns="http://www.w3.org/2000/svg" xmlns:xlink="http://www.w3.org/1999/xlink" x="0px"
	 y="0px" viewBox="0 0 2000 2000" style="enable-background:new 0 0 2000 2000;" xml:space="preserve">
<style type="text/css">
	.st0{fill:#FFFFFF;}
	.st1{fill:#C7D9FA;}
	.st2{fill:#9EBDF7;}
	.st3{fill:#CFF0EF;}
	.st4{fill:#AFE6E4;}
	.st5{fill:url(#SVGID_1_);}
	.st6{fill:url(#SVGID_00000052105270003040621900000014767301198116964756_);}
	.st7{fill:#A0BDE5;}
	.st8{fill:#94B2D6;}
	.st9{fill:url(#SVGID_00000033341311898045711520000010745909193768635811_);}
	.st10{fill:#F8F9FB;}
	.st11{fill:url(#SVGID_00000062886411932320065100000004377911445901273227_);}
	.st12{fill:url(#SVGID_00000080927916689127206700000012885786041276607165_);}
	.st13{fill:url(#SVGID_00000043436852232661603140000003844376885100434085_);}
	.st14{fill:none;}
	.st15{fill:#03423C;}
	.st16{font-family:'MonofurboldForPowerline';}
	.st17{font-size:264.9858px;}
</style>
<rect y="0" class="st0" width="2000" height="2000"/>
<g transform="matrix(1, 0, 0, 1, 5.684341886080802e-14, -176.9385986328125)">
	<path class="st1" d="M147.3,911.3c-5.7,27.6-8.1,56.2-7.2,84.7c19.1-41.9,48.6-78.4,78.6-112.5c28-31.9,57.9-62.1,84.1-95.7
		c25.2-35.5,43.6-75.3,62.9-114.3c-26.8,6-52.9,15.8-77.8,30.9C219.4,745.7,165.4,824.1,147.3,911.3z"/>
	<path class="st1" d="M1098.2,530.4c18.5,7.6,37.3,13.5,56.9,17.2c6.3,0.7,12.5,0.8,18.8,0.8c6.5,0,12.9-0.3,19.4-0.9
		c0.5-0.1,1-0.3,1.5-0.3c-29.3-29.3-59.3-58.2-93.6-78.7c-30.4-18.3-61.9-29-96-32.5c-6.1-0.7-12-0.9-18.2-0.9
		c-19.5,0-39,2.9-58.1,7.8c31.8,13.6,62.4,29.7,92.6,46.8C1046.6,504,1071.9,518.2,1098.2,530.4z"/>
	<path class="st1" d="M1233,1539.6c-61.2-16.8-123.1-32.3-185.8-41.7c-30.2-3.8-60.6-6-91.1-6c-22.6,0-45.3,1.2-67.8,3.8
		c-33.9,5.4-67.2,14.3-100.2,24.1c-64.5,18.9-129.9,39-197.6,39.4c-0.6,0-1.3,0-1.9,0c-25.4,0-51.6-2.5-76.5-8.5
		c1,11.8,1.8,23.5,1.8,35.4c0.3,26.1,19.2,51.1,42.4,51.1c0.6,0,1,0,1.6,0c13-0.7,25-7.3,33.3-18c127.4,30.7,257.8,46.6,388,46.6
		c17.5,0,35-0.3,52.5-0.9c81.1-2.6,161.9-11.8,242.1-26.2c55-9.9,109.2-24,161.3-45.8c-4.4-0.8-8.9-1.7-13.3-2.6
		C1358.3,1576.7,1295.8,1556.8,1233,1539.6z"/>
	<path class="st1" d="M1677.1,692.4c3.7,10.2,7,20.5,9.9,30.7c17.8,62.4,22.9,129.2,21.9,194.1c-1,62.9-7.6,125.5-13.4,188
		c-6.7,71.7-13.3,143.2-20,214.8c-1.9,20.3-3.5,40.5-5.4,60.8c27.3-48.4,48.7-100.7,64.9-155.9c21-72.1,32.3-148,36.1-223.8
		c3.7-74.1-3-149.5-29.7-217.4C1726.8,746.9,1704.5,715.8,1677.1,692.4z"/>
	<path class="st1" d="M842.3,417.3c-27.2-4.5-54.7-7.7-82.2-7.7c-5.2,0-10.4,0.1-15.7,0.3c-65.5,2.9-128.7,19.3-187.5,49.6
		c-58.6,30.1-107.5,75.8-144.9,131c-17.8,26.2-32.3,54.6-46.3,83.1c18-4,36.4-6.5,55-7.7c42.8-2.8,85.6-0.1,128.3-5.7
		c16.2-3,32.3-7.4,47.8-13.5c4.4-1.7,8.9-3.6,13.3-5.6c1.4-0.7,2.8-1.3,4.2-1.9c7.7-4,15.3-8.1,22.8-12.7c31-18.4,60-40.9,88.6-63.6
		c55.8-44,111.6-87.7,176.6-111.4c8.6-3.2,17.5-6,26.3-8.2c-2.3-1.1-4.7-2-7-3C896.2,429.4,869.4,421.9,842.3,417.3z"/>
	<path class="st1" d="M1482.1,1570.6c-15.4,8.2-31,15.6-46.9,22.3c14,2.5,28.1,4.4,42.1,5.6c4.4,0.4,9,0.5,13.3,0.5
		c13.9,0,27.6-1.6,41.5-3.8c17.5-2.6,34.2-9.3,49.7-17.6c15.3-8.2,29.6-20.1,40.2-34.2c15.3-19.7,25.8-39.2,33.3-63.6
		c5.7-18.7,7.8-38.4,10.2-57.6c1.6-13.8,3.2-27.6,4.4-41.3c-9.2,16.3-19.1,32.2-29.7,47.4
		C1598.3,1489.3,1543.3,1538.1,1482.1,1570.6z"/>
	<path class="st1" d="M497.7,1484.7c-1.6-5.2-3.5-10.2-5.2-15.2c0.6,2.3,1.3,4,1.6,5.2c0.5,1.5,0.8,2.6,0.8,2.6s-0.3-0.7-0.8-2.6
		c-0.6-1.9-1.4-4.2-1.9-5.6c-1-2.5-2-4.9-3-7.4c-4.4-10.6-9.5-20.9-14.8-31.1s-11.6-19.5-17.3-29.3c2.5,4.4,3.5,6,3.4,6
		s-5.1-7.9-7-10.5c-3.5-4.8-7.2-9.5-11-14.2c-7-8.5-14.4-16.7-22.1-24.4c-2.2-2.1-4.3-4.1-6.5-6.1c-3.5-3-7.2-6-10.9-8.9
		c-34-26.4-72.2-44.4-108-67.2c-20.1-12.7-39-27.4-56.7-44.1c-16.2-15.1-29.7-33-42.3-52.1c-34.7-52.3-54.1-117.8-56.2-183.8
		c-1.3,2.6-2.4,5.3-3.5,8.1c-9.9,23.7-19,47.4-23.2,72.9c-4.7,28.5-6.5,55-2.8,83.6c3.5,27.4,11,53.1,24.4,77.4
		c11.6,20.8,27.3,39.9,45.7,54.7c20.4,16.7,41.5,30.5,64.3,43.5c15.7,8.9,31.4,17.8,46,28.4c4.7,4.1,9.1,8.5,13.2,13.1
		c4.4,7,8.2,14.3,11.5,22c5.3,13.8,10.6,27.6,16.6,40.9c7.3,16.6,17.8,31.8,29.9,45c23.7,26,56.2,41.7,89.8,42.5
		c13.3,6.9,27.1,12.7,41.7,17.2c6.1,1.9,12.3,3.6,18.5,5.2c0-0.3,0-0.4-0.1-0.5C509.2,1527.8,504.3,1505.9,497.7,1484.7z"/>
	<path class="st1" d="M1516.7,1427.9c-0.5,0.5-1,0.9-1.5,1.5C1516,1428.7,1516.6,1428,1516.7,1427.9z"/>
	<path class="st1" d="M1587.8,549.7c-27.6-25.6-59-45.6-94.6-56.6c-19.7-6-39.5-8.5-59.3-8.5c-17.3,0-34.8,1.9-52.2,4.8
		c-55.2,8.9-105.5,36.2-159,51.3c-9.2,2.6-18.5,4.8-28,6.6c12,12.1,24,24.1,36.1,35.9c4,4,8.2,7.8,12.4,11.8
		c-0.3-0.3-0.3-0.3-0.3-0.3s1.1,1.1,4.3,4c2.3,1.9,4.4,4,6.8,5.8c10.4,8.6,21,16.8,32.1,23.8c4.4,2.9,9,5.6,13.5,8.1
		c-0.3-0.1-0.3-0.3-0.3-0.3c0.3,0,1.8,0.8,5.8,3.2c2.3,1.1,4.6,2,6.8,2.9c11.4,4.5,23.2,7.7,35,9.9c12.1,1.5,24.3,2.3,36.4,2.3
		c1.3,0,2.7,0,3.9,0c32.1-0.4,64.1-4.6,96.1-7.6c15.3-1.5,30.5-2.3,45.7-2.3c19.2,0,38.5,1.5,57.7,4.8c33,5.7,63.9,20.9,90.2,43.2
		c-8.1-22.5-18-44.4-29.6-64.9C1631.6,599,1611.6,571.6,1587.8,549.7z"/>
	<path class="st1" d="M1306.8,640.2c-0.6-0.3-1-0.7-1.6-0.9c-0.4-0.3-0.6-0.3-1-0.5C1305.1,639.3,1306,639.7,1306.8,640.2z"/>
	<path class="st1" d="M1299.6,636.4c0.6,0.4,2.2,1.3,3.5,1.9c0.3,0.3,0.6,0.3,1,0.5c-0.4-0.3-0.8-0.4-1.1-0.7
		C1301.9,637.6,1300.8,636.9,1299.6,636.4z"/>
	<path class="st1" d="M1246.1,597.6c1,0.9,2,1.9,3.2,2.8c-0.8-0.7-1.4-1.3-2-1.9C1246.9,598.2,1246.5,598,1246.1,597.6L1246.1,597.6
		z"/>
	<path class="st1" d="M1243.1,594.8c0.6,0.5,1.9,1.9,3,2.8c-0.1-0.1-0.3-0.3-0.3-0.3C1245,596.5,1244.1,595.7,1243.1,594.8z"/>
	<path class="st2" d="M1243.1,594.8c0.9,0.8,1.8,1.7,2.8,2.5c0.1,0.1,0.3,0.3,0.3,0.3l0.1,0.1c0.3,0.3,0.6,0.5,1,0.8
		c-3.2-2.9-4.3-4-4.3-4C1243,594.5,1243,594.7,1243.1,594.8z"/>
	<path class="st2" d="M1299.6,636.4c1,0.7,2.3,1.2,3.3,1.9c0.4,0.3,0.8,0.4,1.1,0.7c0.4,0.3,0.6,0.3,1,0.5c-4-2.3-5.7-3.2-5.8-3.2
		C1299.4,636.1,1299.4,636.3,1299.6,636.4z"/>
	<path class="st2" d="M495,1477.2c0,0-0.4-1.1-0.8-2.6C494.8,1476.4,495,1477.2,495,1477.2z"/>
	<path class="st2" d="M1677.1,692.4c-26.3-22.4-57.2-37.5-90.2-43.2c-19.4-3.3-38.5-4.8-57.7-4.8c-15.2,0-30.4,0.8-45.7,2.3
		c-32,2.9-64,7.3-96.1,7.6c-1.3,0-2.7,0-3.9,0c-12.1,0-24.3-0.7-36.4-2.3c-11.9-2.3-23.7-5.4-35-9.9c-2.3-0.9-4.6-1.9-6.8-2.9
		c0.5,0.3,1,0.7,1.6,0.9c-0.9-0.5-1.8-1.1-2.8-1.5c-0.3-0.3-0.6-0.3-1-0.5c-1.3-0.7-2.8-1.5-3.5-1.9c-4.6-2.5-9.1-5.2-13.5-8.1
		c-11.1-7.2-21.8-15.2-32.1-23.8c-2.3-1.9-4.6-3.8-6.8-5.8c0.6,0.7,1.3,1.2,2,1.9c-1-0.9-2-1.9-3.2-2.8c-1-0.9-2.4-2.3-3-2.8
		c-4.2-3.8-8.2-7.7-12.4-11.8c-12-11.7-24-23.8-36.1-35.9c-0.5,0.1-1,0.3-1.5,0.3c-6.5,0.7-12.9,0.9-19.4,0.9
		c-6.3,0-12.5-0.3-18.8-0.8c-19.6-3.6-38.5-9.8-56.9-17.2c-26.3-12.2-51.5-26.4-76.8-40.5c-30.4-17.1-60.8-33-92.6-46.8
		c-9,2.3-17.8,5.2-26.3,8.2c-65,23.8-120.9,67.4-176.6,111.4c-28.7,22.7-57.7,45-88.6,63.6c-7.5,4.5-15.1,8.5-22.8,12.7
		c-1.4,0.7-2.8,1.3-4.2,1.9c-4.4,2-8.9,3.8-13.3,5.6c-15.7,6.1-31.6,10.6-47.8,13.5c-42.6,5.6-85.5,2.8-128.3,5.7
		c-18.7,1.2-37.1,3.6-55,7.7c-19.2,39.2-37.7,78.7-62.9,114.3c-26.1,33.7-55.9,64-83.9,95.9c-30,34.1-59.5,70.6-78.6,112.5
		c2,66,21.4,131.4,56.2,183.8c12.7,19.1,26.1,37,42.3,52.1c17.8,16.7,36.6,31.4,56.7,44.1c35.8,22.7,74,40.7,108,67.2
		c3.7,2.9,7.3,6,10.9,8.9c2.2,2,4.3,4,6.5,6.1c7.8,7.7,15.2,15.8,22.1,24.4c3.8,4.6,7.5,9.4,11,14.2c1.9,2.4,6.7,10.5,7,10.5
		c0.1,0-0.9-1.6-3.4-6c5.7,9.8,12,19.1,17.3,29.3c5.3,10.1,10.4,20.5,14.8,31.1c1,2.4,2,4.9,3,7.4c0.5,1.2,1.3,3.6,1.9,5.6
		c-0.4-1.2-0.9-2.9-1.6-5.2c1.5,5.2,3.5,10.2,5.2,15.2c6.6,21.2,11.4,43.2,14.4,65.5c0,0.3,0,0.4,0.1,0.5c25,6,51.1,8.5,76.5,8.5
		c0.6,0,1.3,0,1.9,0c67.7-0.3,133.1-20.4,197.6-39.4c33-9.8,66.3-18.7,100.2-24.1c22.5-2.6,45.2-3.8,67.8-3.8
		c30.5,0,60.8,2.3,91.1,6c62.7,9.4,124.5,24.9,185.8,41.7c62.9,17.2,125.2,37.1,189,50.6c4.4,0.9,8.7,1.9,13.3,2.6
		c15.8-6.6,31.5-13.9,46.9-22.3c61.2-32.5,116.3-81.4,158.3-142.3c10.6-15.4,20.4-31.1,29.7-47.4c1.9-20.3,3.5-40.5,5.4-60.8
		c6.7-71.7,13.3-143.2,20-214.8c5.8-62.5,12.4-125.2,13.4-188c1-64.9-4-131.6-21.9-194.1C1684.2,712.8,1680.8,702.5,1677.1,692.4z
		 M1425.3,1488.3c0,0,1-0.5,3.9-1.7C1427.4,1487.5,1425.3,1488.3,1425.3,1488.3z M1515.3,1429.2c0.5-0.4,1-0.9,1.5-1.5
		C1516.6,1428,1516,1428.7,1515.3,1429.2z M1600.1,758.4c0.1,0,1.9,0.7,3.8,1.6C1601,758.8,1600,758.4,1600.1,758.4z M1626,774.7
		c0.1,0.1,0.3,0.3,0.4,0.3c1,0.9,1.9,1.9,2.9,2.8c0.6,0.7,1,1.1,0.9,1.1C1630.3,779,1629.1,777.9,1626,774.7z"/>
	<path class="st2" d="M1516.7,1427.9c-0.5,0.5-1,0.9-1.5,1.5C1516,1428.7,1516.6,1428,1516.7,1427.9z"/>
	<path class="st2" d="M1603.9,760c-1.8-0.8-3.7-1.6-3.8-1.6C1600,758.4,1601,758.8,1603.9,760z"/>
	<path class="st2" d="M1626.5,775.1c-0.1-0.1-0.3-0.3-0.4-0.3c3,3.2,4.2,4.2,4.3,4.2s-0.3-0.4-0.9-1.1
		C1628.6,777,1627.4,776,1626.5,775.1z"/>
	<path class="st2" d="M1429.2,1486.6c-2.8,1.3-3.9,1.7-3.9,1.7S1427.4,1487.5,1429.2,1486.6z"/>
</g>
<path class="st0" d="M1708.8,919.9c-1.5,0-2.5,1.2-2.5,2.6v12.7c0,1.5,1.1,2.6,2.5,2.6c1.5,0,2.5-1.2,2.5-2.6v-12.7
	C1711.2,921,1710.1,919.9,1708.8,919.9z"/>
<path class="st0" d="M1698.5,934.8h-12.4c-1.5,0-2.5,1.2-2.5,2.6s1.1,2.6,2.5,2.6h12.4c1.5,0,2.5-1.2,2.5-2.6
	C1701.2,936,1699.9,934.8,1698.5,934.8z"/>
<path class="st0" d="M1708.8,894.3c-1.5,0-2.5,1.2-2.5,2.6v12.7c0,1.5,1.1,2.6,2.5,2.6c1.5,0,2.5-1.2,2.5-2.6V897
	C1711.2,895.5,1710.1,894.3,1708.8,894.3z"/>
<path class="st0" d="M1673.8,934.8h-12.4c-1.5,0-2.5,1.2-2.5,2.6s1.1,2.6,2.5,2.6h12.4c1.5,0,2.5-1.2,2.5-2.6
	C1676.5,936,1675.4,934.8,1673.8,934.8z"/>
<path class="st3" d="M262,1338.7c-17.5,18.3-27.3,42.4-27.2,67.6c0.3,31.4,14.3,58.4,35.3,79.9c-8.6-48.8,4.6-102.3,32.9-141.8
	c12.3-17.1,26.7-32.1,42.8-44.9c-9.9,2.5-20,5.2-29.7,8.5C296.4,1314.5,276.6,1323.6,262,1338.7z"/>
<path class="st3" d="M779.8,1274.9c42.1,11.7,85.1,20,128.4,26c7,0.9,13.9,1.7,20.9,2.5c-42-8.7-83.2-20.4-123.3-35.6
	c-4.9-21.9-23.7-39.2-47.8-39.2c-0.1,0-0.3,0-0.4,0c-36.3,0.3-72.6,2.8-108.7,7c28.5,1.5,57.1,3.2,85.6,3.2
	C757.3,1238.8,774.9,1254.5,779.8,1274.9z"/>
<path class="st3" d="M790.6,1542.5c-9.2-1.1-18.6-1.5-27.8-1.5c-8.1,0-16.2,0.4-24.3,1.2c-14.5,2.3-28.8,5.8-42.8,10.1
	c17.3,3,34.3,7.3,50.7,13.5c36.6,16.6,68.8,42.4,108.8,51.1c12.8,2.8,25.4,4.1,38.1,4.1c14.2,0,28.5-1.6,42.8-4.6
	c16.6-3.6,32.8-9.4,48.6-16c-11-2.8-21.8-6-32.5-9.4C898.6,1573.6,846.4,1551.1,790.6,1542.5z"/>
<path class="st3" d="M1606,1313.8c-15.3-0.4-30.5-0.5-45.7-0.5c-28.2,0-56.4,0.7-84.6,1.5c15.6,0.9,31.1,1.9,46.7,3.2
	c47.8,4.1,94.4,10.7,138.3,30.5c40.6,18.3,71.3,49.9,88.3,89.8c15.2-26,11.8-59.6-6.8-83.2C1710.1,1314.5,1653.5,1315,1606,1313.8z"
	/>
<path class="st3" d="M634.5,1548.3c-46.9,0-94.1,4.8-141.1,5.3c-2.8,0-5.6,0.1-8.3,0.1c-62.9,0-129.4-8.6-183.2-42.4
	c-11.5-7.3-22.1-15.6-31.5-25.2c3.5,20.5,11.1,40.3,22.9,57.8c22.5,33.3,55.5,55.6,94,68.1c21.5,6.9,43.8,9.8,66,9.8
	c17,0,33.9-1.6,50.7-4.4c67.3-11,127.1-46,191.8-65.5c-1.9-0.3-3.8-0.7-5.7-0.9C671.5,1549.1,652.9,1548.3,634.5,1548.3z"/>
<path class="st3" d="M419.8,1280.4c35.2-8.9,70.6-17.4,106.3-24.6c40.6-8.3,81.6-15.4,122.8-20.1c-12.5-0.7-25-1.3-37.7-1.9
	c-10.2-0.4-20.4-0.7-30.5-0.7c-30.5,0-60.7,1.9-91,6.5c-52.1,7.9-103.2,27.4-143.7,59.9c6.6-1.7,13.3-3.3,19.7-5.2
	C383.7,1289.6,401.7,1284.9,419.8,1280.4z"/>
<path class="st3" d="M1022.7,1317.8c51.1,5.2,102.6,7,154,7c42.6,0,85.3-1.3,127.9-3c57.1-2.3,114-5.3,171-7.2
	c-44.8-2.5-89.8-3.2-134.7-3.2c-39,0-77.7,0.5-116.6,1.1c-26.4,0.3-53,0.7-79.4,0.7c-69.1,0-138-1.7-206.8-8.7
	c-2.9-0.3-5.9-0.7-8.9-0.9c21.6,4.5,43.5,8.2,65.4,11.3C1004,1315.8,1013.3,1316.9,1022.7,1317.8z"/>
<path class="st3" d="M1749.1,1438.2c-1.4,2.3-2.8,4.5-4.4,6.6c-16.2,21.7-38.6,36.6-62.7,48.9c-77.3,39.7-165.5,50.1-251.9,50.1
	c-4.4,0-8.9,0-13.3-0.1c-59.6-0.7-119.3-5.6-178.9-5.6c-29,0-58.1,1.2-86.9,4.5c-31.5,4.6-62.5,12.2-92,23.7
	c-19.1,8.2-37.7,17.6-56.9,26c-5.8,2.5-11.6,5.2-17.5,7.6c29.3,7.7,59.6,12.7,89.8,12.7c21.1,0,42.1-2.4,62.9-8.1
	c36.6-10.1,69.2-29.7,103.7-44.7c13.7-5.2,27.5-9.3,41.9-11.7c7.8-0.8,15.8-1.1,23.7-1.1c10.4,0,20.6,0.7,31,1.7
	c91.3,14,173.6,63.9,266.7,69.7c4.2,0.3,8.5,0.4,12.8,0.4c41.2,0,85.6-12.5,113-43.9c31-35.8,39.1-85.2,22.6-129.3
	C1751.1,1443.3,1750.1,1440.7,1749.1,1438.2z"/>
<path class="st4" d="M1660.7,1348.5c-44-19.7-90.5-26.4-138.3-30.5c-15.6-1.3-31.1-2.4-46.7-3.2c-57.1,1.9-114,4.8-171,7.2
	c-42.6,1.7-85.3,3-127.9,3c-51.5,0-102.9-1.9-154-7c-9.4-0.9-18.7-2-28-3.2c-22-3-43.9-6.8-65.4-11.3c-7-0.8-13.9-1.6-20.9-2.5
	c-43.4-6-86.4-14.3-128.4-26c-4.9-20.4-22.5-36.2-45.3-36.2c-28.6-0.1-57.1-1.7-85.6-3.2c-41.2,4.8-82.4,11.8-122.8,20.1
	c-35.5,7.3-71,15.8-106.3,24.6c-18.1,4.6-36.1,9.4-54.1,14c-6.6,1.7-13.2,3.4-19.7,5.2c-16.2,12.9-30.6,27.8-42.8,44.9
	c-28.3,39.5-41.5,93-32.9,141.8c9.4,9.5,20,18,31.5,25.2c53.8,33.8,120.3,42.4,183.2,42.4c2.8,0,5.7,0,8.3-0.1
	c46.9-0.7,94.1-5.3,141.1-5.3c18.6,0,37.2,0.7,55.7,2.8c1.9,0.3,3.8,0.7,5.7,0.9c14-4.2,28.2-7.7,42.8-10.1
	c8.1-0.8,16.2-1.2,24.3-1.2c9.2,0,18.6,0.5,27.8,1.5c55.8,8.6,108,31.1,161.4,48.4c10.8,3.4,21.5,6.6,32.5,9.4
	c5.9-2.5,11.8-5,17.5-7.6c19.1-8.5,37.7-17.8,56.9-26c29.7-11.5,60.6-19.1,92-23.7c29-3.4,57.9-4.5,86.9-4.5
	c59.6,0,119.3,4.9,178.9,5.6c4.4,0.1,8.9,0.1,13.3,0.1c86.4,0,174.5-10.3,251.9-50.1c24.2-12.3,46.6-27.2,62.7-48.9
	c1.6-2.1,3.2-4.4,4.4-6.6C1732,1398.4,1701.4,1366.8,1660.7,1348.5z"/>
<linearGradient id="SVGID_1_" gradientUnits="userSpaceOnUse" x1="1434.2245" y1="1635.7765" x2="1451.1039" y2="1182.1808" gradientTransform="matrix(1 0 0 -1 0 2754.501)">
	<stop  offset="0" style="stop-color:#F8F9FB"/>
	<stop  offset="1" style="stop-color:#A0BDE5"/>
</linearGradient>
<path class="st5" d="M1726,889.6l-455.7-0.5c-19.6,0-36.8,13.4-42.4,32.7l-104,366.7h503.4l114.9-376
	C1745.6,901.1,1737.5,889.6,1726,889.6z"/>
<linearGradient id="SVGID_00000175306936995386938630000009412763565601108103_" gradientUnits="userSpaceOnUse" x1="1248.25" y1="1415.2366" x2="1248.25" y2="1542.1865" gradientTransform="matrix(1 0 0 -1 0 2754.501)">
	<stop  offset="0" style="stop-color:#F8F9FB"/>
	<stop  offset="1" style="stop-color:#A0BDE5"/>
</linearGradient>
<path style="fill:url(#SVGID_00000175306936995386938630000009412763565601108103_);" d="M873.4,1333.7h723.4
	c14.5,0,26.3-12.2,26.3-27.2v-16.8H873.4V1333.7z"/>
<path class="st7" d="M1457.1,1065.7c9,9.9,5.7,28.4-7.5,41.1s-31.1,15-40.2,5c-9-9.9-5.7-28.4,7.5-41.1
	C1430.2,1058,1448.2,1055.7,1457.1,1065.7z"/>
<path class="st8" d="M1457.3,1082.4c-5.3,16.2-21.8,28.9-36.8,28.5c-6.6-0.3-11.9-3-15.3-7.3c2.2,8.5,8.9,14.3,18.7,14.6
	c15.1,0.5,31.6-12.2,36.8-28.5c2.9-9,1.8-17.2-2.5-22.8C1459.3,1071.2,1459,1076.5,1457.3,1082.4z"/>
<g transform="matrix(1, 0, 0, 1, 1.1368683094535245e-13, -176.93859863281247)">
	
		<linearGradient id="SVGID_00000145779757365044453840000005074664665910133656_" gradientUnits="userSpaceOnUse" x1="481.0319" y1="1990.9166" x2="463.3313" y2="1869.0305" gradientTransform="matrix(1 0 0 -1 0 3108.3782)">
		<stop  offset="0" style="stop-color:#3576EE"/>
		<stop  offset="1" style="stop-color:#F77FA4"/>
	</linearGradient>
	<path style="fill:url(#SVGID_00000145779757365044453840000005074664665910133656_);" d="M514.4,1225.6c-3-6-6.3-11.5-9.1-17.6
		c-2.8-6.2-4.6-12.7-5.2-19.6c-1.1-13.1-0.5-26-3.8-38.8c-2.8-10.6-7.3-20.9-13.3-29.9c-13.7-20.5-34.3-35.9-57.9-41.3
		c-3.2-0.7-5.6,3.2-3.2,5.6c24.4,26.4,24.2,66.2,18,99.6c-3.8,20.5-9.5,40.5-13.3,60.9c-3.7,20.1-4.9,40.7-3.5,61.2
		c1.5,21.6,5.8,42.9,12.9,63.3c-0.5,1.3,0.3,3,1.5,4c1.5,3.6,6.8,2.3,6.5-1.1c20.9-10.2,40.6-23.6,55.5-41.9
		c15.6-19.1,25.4-43.6,24.5-68.8C523.3,1248.6,520,1236.7,514.4,1225.6z"/>
	<path class="st10" d="M499.7,1249.8c-3.3,5.2-7,10.2-11,14.7c0.6-8.9,0.4-18-0.9-26.9c-1.5-11-5.2-21.2-8.9-31.4
		c6.6-12.3,10.6-25.8,11.9-40c0.5-5.3-7.5-5.2-8,0c-0.9,10.2-3.5,20.1-7.6,29.3c-3.3-11-4.2-21.9-4.8-33.4
		c-0.6-13.5-1.9-27.2-9-38.8c-2.8-4.5-9.6-0.3-7,4.1c6.1,10.1,7.2,21.7,7.8,33.4c0,0.5,0.1,1.1,0.1,1.5c-2-1.3-4.2-2.6-6.2-3.8
		c-4.4-2.6-8.5,4.4-4,7.2c3.5,2.3,7.1,4.4,10.6,6.6c0.1,0,0.1,0.1,0.3,0.1c0.6,8.1,1.5,16,3.8,23.6c3.5,11.8,9.1,23.1,11.8,35.2
		c0.1,0.4,0.3,0.8,0.3,1.3c-4.9-2.6-9.2-6.4-12.4-11c-3-4.4-9.9-0.3-7,4.1c5.3,7.7,12.3,13.1,20.9,16.4h0.1c1,8.5,1,17,0.3,25.6
		c-1.4,13.9-5.3,27.4-11.5,39.9c-2.3,4.8,4.6,8.9,7,4.1c5.3-10.6,9.1-22.1,11.1-33.8c0.5-0.3,1-0.5,1.5-1.1
		c6.8-6.8,12.8-14.3,18-22.5C509.5,1249.4,502.6,1245.3,499.7,1249.8z"/>
</g>
<linearGradient id="SVGID_00000137814854618595813440000004842457681582928051_" gradientUnits="userSpaceOnUse" x1="358.8583" y1="1917.4551" x2="358.8583" y2="1508.8754" gradientTransform="matrix(1 0 0 -1 0 2754.501)">
	<stop  offset="0" style="stop-color:#3576EE"/>
	<stop  offset="1" style="stop-color:#F77FA4"/>
</linearGradient>
<path style="fill:url(#SVGID_00000137814854618595813440000004842457681582928051_);" d="M458,1060.8c-6.6-12.3-15.8-22.3-26.9-30.3
	c-12-8.9-25.4-15.8-35.3-27.3c-9.6-11.1-15.8-25.6-17.5-40.4c-1.9-17.2,1-34.3,2.2-51.4c1.9-26.8-2.8-61.9-30-73.9
	c-3.3-1.5-6.2,0.9-5.7,4.5c2.8,18.9-6.5,37.6-18.1,51.4c-12.5,14.8-28.3,26.1-42.8,38.8c-13.3,11.7-25.9,25.2-33,41.9
	c-7.2,17.2-7.2,36.3-1,53.8c6.1,17.2,17.3,32.1,31.2,43.3c7.1,5.7,14.5,10.7,22.5,15c7.5,4,15.3,7.3,23.2,10.9
	c7.3,3.4,14.9,7.3,21,13c6.6,6,10.8,13.6,13.2,22.4c4.7,16.8,3.2,34.7,6.6,51.8c3.2,16,10.9,31.8,26.2,38.6
	c17.5,7.7,36.4,2.5,52.9-5.2c1.5-0.7,3-1.5,4.4-2.3c-1.6,8.7-3,17.5-4,26.4c-0.6,5.2,7.2,5,7.8,0c1.1-10.2,2.9-20.4,4.8-30.7
	c0.1-0.1,0.3-0.1,0.3-0.3c2.5-1.3,2.3-4.2,0.9-6C470.3,1156.3,482.4,1106.1,458,1060.8z"/>
<path class="st10" d="M433.7,1092.3c-2,10.2-4.7,20.3-8,30.1c-0.1-0.5-0.3-1.1-0.3-1.5c-2-13.1-4.4-26.4-9.1-38.7
	c-4.4-11.7-10.8-22.3-20.4-30.1c-0.9-0.7-1.8-1.5-2.8-2.1c2.8-9.1,3.4-18.5,2.2-28.1c-0.9-6.4-10.1-3.6-9.2,2.6
	c0.9,6.8,0.4,13.4-1.3,19.7c-6.6-4-13.3-7.4-20-11c-9.2-4.9-18.7-10.5-25.7-18.4c12-9.4,19.4-24.2,19.4-40c0-6.4-9.6-6.4-9.6,0
	c0,12.6-5.7,24.5-15.3,32.1c-4.7-9.3-5.2-19.7-2.7-30.1c7-28.9,30.2-50.5,32.5-81.1c0.5-6.4-9.1-6.4-9.6,0
	c-1.6,23.1-17.1,41.7-26.4,62.4c-3.8-7-5.4-15.1-4.3-23.1c1-6.2-8.2-8.9-9.2-2.6c-1.9,11.9,0.5,24,7.2,34.1c0.6,0.9,1.5,1.5,2.3,1.9
	c-3.8,11.8-5.3,24.8-1.1,36.6c1.6,4.9,4.2,9.3,7.2,13.2c-12.3,3.6-24.4-2.1-29.9-14.3c-2.5-5.8-10.8-0.8-8.2,5
	c7.3,16.8,26.7,24.8,43.3,18c0.6-0.3,1.3-0.7,1.6-1.1c2.2,2,4.4,4,6.7,5.7c15.6,11.8,35.8,17.6,49.8,31.3
	c-13.4,10.7-31.8,11.3-46.2,1.9c-5.3-3.4-10,5.2-4.8,8.5c18.1,11.8,40.7,10.2,57.4-3.2c0.6,1.1,1.4,2,2,3c6.5,10.5,9.6,22.7,12,34.6
	c1.9,9.8,3.5,19.6,4.7,29.5c-10.4-0.8-19.6-5.7-26.4-13.5c-4.2-4.8-10.9,2.3-6.8,7c8.7,9.9,20.7,15.6,33.5,16.4c0.3,0,0.5,0,0.6,0
	c0.1,1.5,0.3,2.8,0.3,4.2c2.3,33,0.1,66.1-6.7,98.3c-1.3,6.2,8,8.9,9.2,2.6c6.1-28.8,8.7-58.2,7.7-87.6c-0.3-7.3-0.6-14.7-1.5-22
	c6.6-15.4,11.5-31.3,14.8-47.7C444.2,1088.7,435,1086.1,433.7,1092.3z"/>
<linearGradient id="SVGID_00000038381519874434766800000014396660836466662542_" gradientUnits="userSpaceOnUse" x1="557.1445" y1="1885.6064" x2="527.4495" y2="1690.525" gradientTransform="matrix(1 0 0 -1 0 2754.501)">
	<stop  offset="0" style="stop-color:#3576EE"/>
	<stop  offset="1" style="stop-color:#F77FA4"/>
</linearGradient>
<path style="fill:url(#SVGID_00000038381519874434766800000014396660836466662542_);" d="M606.5,1040c-2.3-10.2-2.8-20.5-1.5-30.9
	c2.7-20.4,10-39.7,12.4-60.3c2-18.2-0.8-35.5-9.5-51.5c-12.8-23.2-33.9-40-50.2-60.5c-3-9.4-8.2-18.2-16.1-25.2
	c-3.8-3.4-8.6,1.1-6.6,5.4c4,8.7,9.2,16.4,14.9,23.8c4.8,15.9,2.9,34.3-2.3,49.8c-10.6,31.8-32.6,57.9-43,89.8
	c-4.7,14.4-6.8,29.9-4.2,45c2.5,14.3,10.5,26.8,14,40.7c8.7,34.8-29.2,53.7-50.6,71.7c-26.3,22.3-47.2,50.9-60.7,83.1
	c-0.4,1.1-0.5,2-0.3,2.9c-1.4,1.5-2.7,2.8-3.9,4.4c-3.3,4.4,2.8,10.6,6.1,6.1c12.5-16.6,34-18,52.9-19.5c4-0.3,8-0.7,12-1.1
	c10.4,2.4,21,3,31.8-0.1c9.2-2.6,16.8-8.1,23.2-15.6c6.1-7.3,11.1-15.9,18.8-21.6c12.7-9.5,29.2-11,43.8-15.8
	c16.2-5.3,29.1-15.6,33.9-33c5.6-19.5,0.4-39.9-5.8-58.4C612.3,1059.7,608.8,1050,606.5,1040z"/>
<path class="st10" d="M581.5,961.4c-2.8,9.5-8.2,18-15.6,24.2c1.5-5.4,3.3-10.7,5.1-16c8.1-24.6,16.6-51.7,7.3-77.2
	c-2.2-6-11.4-3.3-9.2,2.6c4,11.4,4.4,23.2,2.7,34.8c-1.9-3.8-2.9-8.1-2.8-12.7c0.1-6.4-9.5-6.4-9.6,0c-0.3,9.5,3.3,18.8,9.9,25.6
	c-1.9,7.7-4.4,15.4-6.8,22.8c-3.7,11.4-7.5,22.8-9.5,34.7c-1.4,8.5-1.6,17.2-1.4,25.8c-8-6.6-13.3-16.2-14.3-26.9
	c-0.6-6.4-10.2-6.4-9.6,0c1.5,16.4,10.6,31.4,24.7,39.4c1.5,16.6,4,34.2,1.5,50.9c-0.8,1.1-1,2.4-0.6,3.7c-0.9,4.4-2.2,8.9-4,13.1
	c-5.7,13.4-16.2,21.1-27.8,27.6c0.6-6.8,1.8-13.4,3.3-20c1.5-6.2-7.8-8.9-9.2-2.6c-2.2,9.3-3.5,18.7-4,28.1c-3.5,1.9-7,3.8-10.2,5.8
	c-9.7,6-19.1,13.9-24,24.6c-4.7,10.5-5.3,22.9,0.8,33c3.3,5.3,11.6,0.4,8.2-5c-5.2-8.5-3.5-18.8,1.4-26.9c14,1.5,28.2-0.8,41.2-6.5
	c2.4-1.1,4-3.2,3.3-6.1c-0.6-2.3-3.5-4.5-5.9-3.4c-9.9,4.4-20.2,6.5-30.7,6.5c5.1-4.5,11.1-8.1,16.8-11.3
	c9.5-5.2,19.2-9.8,27.8-16.7c8.2-6.5,14.3-14.7,18.3-24.5c1.9-4.5,3.2-9.1,4-13.8c12.5-8.6,20.4-23.1,21.1-38.7
	c0.3-6.4-9.4-6.4-9.6,0c-0.4,9.1-4,17.6-9.9,24.2c0.6-12.7-0.6-25.6-1.9-38.2c-1.1-12.6-2.2-25.4-0.3-38c0.3-1.9,0.6-3.7,1-5.6
	c1,0.3,2,0,3.2-0.7c12-7.8,20.7-19.7,24.9-33.8C592.6,957.9,583.4,955.3,581.5,961.4z"/>
<linearGradient id="SVGID_00000124158791213395497370000015686528454657367200_" gradientUnits="userSpaceOnUse" x1="459.0846" y1="1507.4497" x2="459.0846" y2="1266.0497" gradientTransform="matrix(1 0 0 -1 0 2754.501)">
	<stop  offset="0" style="stop-color:#6ED1CE"/>
	<stop  offset="1" style="stop-color:#45A1D0"/>
</linearGradient>
<path style="fill:url(#SVGID_00000124158791213395497370000015686528454657367200_);" d="M551.5,1195H459h-92.5
	c-12,0-20.7,13.9-17.8,28.2l34.3,175.3c4.4,22.3,20.4,37.9,38.8,37.9h37.3h37.4c18.5,0,34.5-15.6,38.8-37.9l34.3-175.3
	C572.1,1208.8,563.4,1195,551.5,1195z"/>
<rect x="334.9" y="589.9" class="st14" width="1933.2" height="238"/>
<text transform="matrix(0.9548 0 0 1 334.8809 762.1672)" class="st15 st16 st17">Web Develop</text>
<rect x="687.5" y="318.5" class="st14" width="543.3" height="238"/>
</svg>
